<?xml version="1.0" encoding="UTF-8"?> <svg xmlns="http://www.w3.org/2000/svg" xmlns:xlink="http://www.w3.org/1999/xlink" xmlns:xodm="http://www.corel.com/coreldraw/odm/2003" xml:space="preserve" width="145.697mm" height="155.222mm" version="1.1" style="shape-rendering:geometricPrecision; text-rendering:geometricPrecision; image-rendering:optimizeQuality; fill-rule:evenodd; clip-rule:evenodd" viewBox="0 0 14569.72 15522.22"> <defs> <style type="text/css"> .fil2 {fill:#FEFEFE;fill-rule:nonzero} .fil5 {fill:#E5E6E5;fill-rule:nonzero} .fil1 {fill:#BEE2CE;fill-rule:nonzero} .fil0 {fill:#78C79F;fill-rule:nonzero} .fil4 {fill:#65C196;fill-rule:nonzero} .fil7 {fill:#4EB789;fill-rule:nonzero} .fil3 {fill:#313F44;fill-rule:nonzero} .fil6 {fill:#303B3F;fill-rule:nonzero} </style> </defs> <g id="Слой_x0020_1"> <metadata id="CorelCorpID_0Corel-Layer"></metadata> <g id="_2892684509696"> <path class="fil0" d="M11419.45 14974.49c0,302.51 -2112.04,547.73 -4717.38,547.73 -2605.33,0 -4717.35,-245.22 -4717.35,-547.73 0,-302.46 2112.02,-547.69 4717.35,-547.69 2605.34,0 4717.38,245.23 4717.38,547.69z"></path> <path class="fil1" d="M6702.07 15522.22c-2605.33,0 -4717.35,-245.22 -4717.35,-547.73 0,-227.93 1199.46,-423.36 2905.59,-505.83l-10.19 261.62c-0.22,4.79 1.58,9.48 4.9,12.89 3.32,3.46 7.94,5.45 12.7,5.45l10.16 0c-38.95,89.53 -66.89,169.68 -84.74,225.87l0 0 0 0 5184.78 0c7.26,-56.36 13.54,-127.1 13.54,-203.55 0,-60.29 -3.91,-124.13 -14.32,-187.25 871.57,99.37 1412.31,237.77 1412.31,390.8 0,302.51 -2112.04,547.73 -4717.38,547.73zm-1778.46 -808.88l-7.55 0 9.6 -246.38c45.4,-2.15 90.91,-4.2 136.95,-6.17 -55.6,83.24 -101.71,170.85 -139,252.55z"></path> <path class="fil2" d="M8306.15 8822.58c-8.36,9.46 -15.63,18.21 -22.57,25.86l-2.93 3.28c-14.57,16.37 -24.73,27.66 -28.05,31.65l-1.76 1.83 0 -343.01 1.76 0 30.98 0.39 188.98 1.06 10.19 41.91 1.45 6.21c-6.91,10.51 -13.83,20.71 -20.74,30.9 -48.79,71.02 -112.5,147.85 -157.31,199.92zm2553.2 1133.86l-2.23 -2.54c-2.89,-3.66 -5.82,-7.3 -7.97,-10.93 -5.47,-6.56 -10.19,-12.74 -14.92,-18.56l-0.39 -0.39 -156.17 -158.39 -3.67 -3.28 -525.39 -531.96 -4.77 -5.47c-26.95,-31.67 -223.55,-265.46 -308.04,-396.16l-2.54 -4.38c-8.36,-12.73 -15.63,-24.76 -21.13,-34.92 -10.2,-18.95 -25.12,-40.08 -43.68,-62.3l-3.63 -4.38c-83.05,-97.22 -234.14,-217.35 -372.15,-292.7l-6.56 -3.28c-29.84,-16.02 -58.59,-29.88 -86.29,-41.17l-5.82 -2.54c0,0 86.29,-41.17 76.84,-146.75l-1.45 -8.75 -1.13 -6.53 -1.06 -5.11c-22.22,-88.48 -134.02,-208.64 -233.78,-277.46 -8.36,-5.44 -16.72,-10.94 -25.12,-16.37 -7.66,-5.08 -14.92,-9.46 -22.23,-13.13 -3.24,-1.8 -6.13,-3.63 -9.45,-5.43l-0.35 0 0 -0.39 -27.66 -265.78 -48.08 0 -14.22 -163.87c0,0 1.13,-64.45 3.67,-167.49 0.35,-5.47 0.35,-10.94 0.7,-16.41 6.21,-247.19 20.75,-692.54 46.96,-1010.78l0 -1.09c37.92,-463.52 93.24,-978.75 114.02,-1261.29l0.7 -8.75 0.35 -5.08c1.1,-16.01 2.54,-32.03 3.67,-47.69 1.45,-14.22 2.54,-28.4 3.64,-42.26 17.85,-202.43 39.68,-388.52 8,-469.73 -6.17,-16.72 -14.92,-29.1 -26.56,-36.37 -64.1,-40.08 -164.61,217.73 -240.35,470.08l0 0.35c-14.57,49.14 -28.36,98.67 -40.78,145.27 -1.83,6.21 -3.63,12.39 -5.43,18.95 -55,208.24 -186.8,721.29 -260,1128.04 -34.22,188.24 -55.35,353.91 -50.62,455.86l0 1.83c16.01,325.9 38.63,353.91 118.35,600.43 75.75,234.1 91.37,381.95 92.82,396.14l0 1.09 -37.85 6.91 -30.59 5.86 -24.38 154.76c0,0 -85.23,-4.05 -160.58,32.39 -26.95,12.38 -52.78,30.58 -72.85,55.35l-1.44 -0.39c-4.38,-1.09 -16.73,-3.99 -36.41,-7.97l-0.74 0c-48.44,-9.49 -139.46,-23.67 -256.68,-26.95 -84.85,-1.84 -183.13,1.8 -288.72,17.81l-3.31 0.35c-289.46,44.45 -542.89,138.05 -634.65,193.75 -3.28,1.8 -6.17,3.6 -9.1,5.43l-0.35 0.39c-3.32,1.8 -6.57,3.99 -9.49,6.92l-4.73 3.63 -3.28 2.54 -3.64 3.63 -3.63 4.02c-29.14,34.96 -53.16,116.53 -61.91,201.02l0 1.44c-5.43,53.87 -4.73,108.87 5.47,153.28 1.83,9.11 4.34,17.11 6.91,24.03l0.35 1.45 347.77 20.39 159.07 9.49 214.52 12.34 0 0.39 -31.71 718.75c0,0 -88.48,64.45 -194.06,155.5 -78.64,68.44 -166.41,151.13 -234.14,233.05 -6.18,7.27 -11.68,14.53 -17.5,22.19 -7.27,9.84 -14.54,19.65 -21.84,29.49l-5.82 8.01c-78.28,110.7 -175.86,285.47 -261.79,444.22 -87.04,160.97 -162.39,305.15 -194.07,349.57l-0.35 0.74c-37.54,52.42 -105.62,187.89 -174.8,311.68 -56.06,100.85 -112.86,194.06 -153.64,229.02l-1.44 1.09c-90.7,77.54 -146.41,161.29 -100.16,182.78 46.61,21.09 121.25,8.75 259.61,-104.85l4.38 -3.32c136.87,-112.85 486.09,-577.1 507.57,-605.86 25.12,-30.58 50.24,-61.56 76.1,-92.46 10.23,-12.77 20.74,-25.89 31.68,-38.63 62.3,-75.35 141.67,-171.48 210.82,-255.59 17.49,-21.83 35.7,-43.35 53.9,-65.19 10.2,-12.73 20.78,-25.5 31.68,-38.24 22.93,-28.05 46.25,-56.06 69.53,-83.75 71.37,-82.27 87.39,-69.18 87.39,-69.18l-5.47 128.55 -3.6 83.01 0 0.35 -129.26 4683.17c55.28,-11.01 110.53,-4.7 165.63,1.62 59.87,6.88 119.63,13.72 179.18,-1.62 52.53,-13.41 129.71,-6 207.5,1.44 82.87,7.9 166.44,15.81 221.65,-1.44l2.54 0 -173.18 -5473.63 0 -8.4 4.73 -5.08 76.84 -84.49 395.07 -434.76 3.6 -3.64c0,0 7.3,5.47 18.24,10.94 17.85,9.1 45.89,18.2 68.79,3.63 36.79,-24.02 113.63,-191.91 113.63,-191.91l101.95 -26.21 2.54 -0.71 1.1 -0.35 49.88 -12.77 42.61 40.04 263.25 244.33c3.67,3.29 7.26,6.92 10.93,10.2l1438.24 1336.71 2.23 1.76c8.71,10.23 90.62,99.06 143.43,72.85 43.36,-21.83 -74.64,-183.12 -129.25,-253.05z"></path> <path class="fil0" d="M9178.01 8459.01l-47.38 84.56 -42.86 -39.83 -50.91 13.02 -2.47 0.63 -102.06 26.18c0,0 -76.62,167.85 -113.45,191.81 -23,14.78 -51.15,5.6 -69,-3.36l23.88 -62.65c0,0 -54.05,-167.39 -238.76,-155.12l-16.09 101.39c0,0 -72.1,-118.14 -69,-134.72 3.14,-16.55 -99.59,-125.1 -115.43,-284.24 -15.87,-159.1 62.51,-470.18 469.41,-385.79 0,0 -131.45,12.84 -184.86,230.15 -53.37,217.52 268.61,371.19 558.98,417.97z"></path> <polygon class="fil0" points="7772.44,10053.04 8159.82,9649.67 8122.71,9400.33 7796.85,9802.35 "></polygon> <path class="fil0" d="M8048.8 8218.63l0 -52.14 222 219.11 -18.09 145.02 0 365.02c-57.58,57.93 -155.65,136.95 -201.65,172.97 4.9,-499.29 5.11,-833.4 -2.26,-849.98z"></path> <path class="fil0" d="M8424.72 14730.98l-2.54 0c-55.21,17.25 -138.78,9.34 -221.65,1.44 -77.79,-7.44 -154.97,-14.85 -207.5,-1.44 11.64,-667.07 26.95,-3380 39.3,-4212.7 3.67,-239.96 6.91,-474.8 9.84,-696.56 0.35,-17.15 0.74,-33.87 0.74,-50.62 1.45,-95.04 2.54,-187.51 3.63,-276.76l0 -2.54 27.66 -31.64 49.14 -56.09 128.2 -146.72 0.36 -0.39 172.82 5474.02z"></path> <path class="fil0" d="M10988.57 10209.53c-55.85,27.76 -144.29,-73.42 -144.29,-73.42l-1756.51 -1632.37 -50.91 13.02c19.44,-5.4 144.92,-42.12 263.07,-131.16 188.95,76.09 446.69,282.43 512.34,403.93 66.32,123.08 334.57,438.85 334.57,438.85l687.18 695.82c0,0 210.36,257.35 154.55,285.33z"></path> <path class="fil0" d="M8344.61 8071.24c0,0 -1035.72,-61.11 -1146.46,-9.49 -110.77,51.61 -107.81,310.44 -74.16,402.62l1324.76 77.79 1.12 -61.31 3.11 -16.58c0,0 -136.56,-95.57 -108.37,-393.03z"></path> <path class="fil0" d="M8662.71 8530.59c0,0 -191.14,413.88 -443.27,592.7 -252.17,178.86 -746.16,519.43 -1171.47,1030.43 0,0 220.59,-485.81 464.19,-687.6 243.55,-201.83 571.5,-395.29 671.4,-499.64 99.87,-104.32 351.37,-452.16 351.37,-452.16l127.78 16.27z"></path> <path class="fil0" d="M8899.07 4888.12c-148.52,747.47 -188.95,1789.68 -93.38,2156.25 95.6,366.36 63.88,592.84 63.88,592.84l-151.87 0 0 -5.61 37.75 -6.91c0,0 -12.95,-150.85 -92.71,-397.23 -79.94,-246.66 -102.27,-274.6 -118.57,-600.67 -16.3,-325.86 239.86,-1317.73 315.56,-1602.6 12.53,-47.24 26.57,-97.16 41.56,-147.29 -0.67,3.6 -1.59,7.41 -2.22,11.22z"></path> <path class="fil3" d="M8662.04 7774.34c-61.99,2.36 -118.29,10.65 -167.57,34.36 -49.32,23.63 -90.63,63.18 -120.97,123.93 -36.9,73.66 -56.73,157.23 -56.73,239.64 -0.03,114.3 38.38,227.08 124.36,305.08 7.23,6.53 18.38,6 24.9,-1.23 6.56,-7.23 6.03,-18.38 -1.2,-24.91 -77.04,-69.81 -112.78,-172.22 -112.78,-278.94 -0.04,-76.73 18.59,-155.26 52.99,-223.8 27.72,-54.96 62.26,-87.38 104.74,-107.99 42.47,-20.49 93.87,-28.64 153.6,-30.9 9.73,-0.35 17.35,-8.54 16.96,-18.27 -0.35,-9.74 -8.57,-17.32 -18.3,-16.97z"></path> <path class="fil3" d="M8935.72 8560.89c115.85,-22.96 225.07,-66.14 307.45,-118.92 41.2,-26.42 75.74,-55.25 101,-85.76 25.18,-30.48 41.48,-62.97 43.95,-96.73 0.25,-3.56 0.36,-7.16 0.36,-10.8 -0.32,-62.47 -36.02,-129.54 -92.96,-194.2 -57.19,-64.59 -136.6,-126.65 -228.04,-176.14 -8.57,-4.62 -19.29,-1.41 -23.92,7.16 -4.62,8.57 -1.44,19.26 7.13,23.88 88.09,47.59 164.57,107.6 218.41,168.49 54.01,60.78 84.41,122.59 84.1,170.81l-0.28 8.29c-1.63,23.71 -13.73,49.96 -35.92,76.73 -66.28,80.79 -220.62,159.78 -388.12,192.58 -9.56,1.87 -15.77,11.15 -13.87,20.71 1.87,9.56 11.15,15.77 20.71,13.9z"></path> <path class="fil3" d="M9094.01 7901.76l-27.76 -266.28c-0.95,-9.03 -8.5,-15.84 -17.54,-15.84l-361.84 0c-8.68,0 -16.09,6.35 -17.43,14.93l-24.16 154.66c-0.81,5.18 0.77,10.51 4.23,14.42 3.46,3.92 8.57,6.11 13.8,5.93l1.86 0c11.75,0 78.36,1.59 199.82,34.47 9.38,2.57 19.08,-3 21.62,-12.39 2.54,-9.41 -3,-19.12 -12.41,-21.66 -124.32,-33.69 -194.1,-35.7 -209.03,-35.7l-3.03 0.04 0.57 17.64 17.42 2.71 21.84 -139.77 330.83 0 26.15 250.51c0.98,9.67 9.66,16.72 19.36,15.7 9.67,-1.02 16.72,-9.7 15.7,-19.37z"></path> <path class="fil3" d="M8771.47 7640.42c0.17,-0.98 2.61,-14.85 2.61,-41.31 0.03,-71.4 -17.71,-234.28 -144.01,-482.63 -49.35,-96.73 -70.31,-236.72 -70.2,-400.23 -0.11,-382.55 113,-892.63 213.68,-1293.35 71.82,-286.28 137.9,-532.63 200.73,-709.72 31.4,-88.51 62.05,-159.74 91.58,-209.34 14.75,-24.76 29.21,-44.13 42.79,-57.43 13.62,-13.41 26,-20.46 36.58,-22.61l-0.63 -3.04 0 3.07 0.63 -0.03 -0.63 -3.04 0 3.07 0 -4.06 -2.54 3.36 2.54 0.7 0 -4.06 -2.54 3.36 1.69 2.22c3.95,5.92 9,23.67 11.72,48.79 2.89,25.22 4.26,58.24 4.26,97.5 0.04,198.72 -34.96,556.12 -71.22,926.43 -36.27,370.49 -73.84,754.14 -78.92,1008.63 -10.09,511.88 -40.99,717.3 -41.06,947.03 0,58.39 2.01,118.25 6.91,184.86 0.71,9.7 9.18,17 18.88,16.3 9.73,-0.71 17.04,-9.17 16.29,-18.88 -4.79,-65.79 -6.8,-124.7 -6.8,-182.28 -0.04,-226.09 30.9,-433.21 41.06,-946.32 4.97,-251.99 42.47,-635.57 78.74,-1005.91 36.27,-370.53 71.37,-727.61 71.4,-929.86 -0.03,-52.42 -2.29,-94.4 -7.9,-124.81 -2.89,-15.27 -6.42,-27.66 -12.17,-37.99 -2.89,-5.15 -6.49,-9.95 -11.57,-13.83 -5.01,-3.92 -11.93,-6.53 -18.77,-6.46l-6.67 0.71 0 0c-19.58,4.2 -37.36,15.63 -54.01,32 -29.1,28.71 -56.2,73.37 -83.71,132.39 -82.16,176.85 -166.41,484.37 -260.88,860.64 -100.79,401.81 -214.63,912.92 -214.74,1301.96 0.11,166.48 20.64,310.87 74.05,416.21 124.04,244.05 140.12,401.11 140.16,466.65 0,12.14 -0.56,21.17 -1.09,26.99l-0.71 6.42 -0.21 1.41 -0.04 0.21c-1.73,9.6 4.62,18.77 14.22,20.5 9.6,1.73 18.77,-4.62 20.5,-14.22z"></path> <path class="fil3" d="M8773.87 8669.3l16.01 -7.37c-0.39,-0.81 -19.54,-42.58 -54.68,-85.2 -17.64,-21.31 -39.3,-42.9 -65.16,-59.51 -25.78,-16.58 -56.19,-28.22 -90.06,-28.22 -16.33,0 -33.34,2.71 -50.73,8.64 -3.78,1.27 -6.95,3.74 -9.1,7.12 -122.38,189.27 -267.41,403.26 -449.76,531.71 -194.06,137.06 -400.82,238.13 -571.04,417.51 -165.42,174.52 -295.8,378.64 -410.77,587.31 -197.31,358.31 -359.7,738.57 -619.52,1048.17l0 0c-8.78,10.51 -18.13,22.68 -25.54,36.2 -7.37,13.47 -13.16,28.43 -13.23,44.94 -0.03,10.48 2.61,21.52 8.57,31.5l0.04 0c6.39,10.87 15.84,18.95 26.21,23.67 10.41,4.77 21.49,6.53 32.39,6.53 25.08,-0.1 50.16,-8.89 70.66,-19.72l0 0c220.24,-117.69 352.49,-335.35 501.86,-516.43 119.2,-144.89 237.7,-290.23 357.01,-434.87 273.86,-332 548.99,-662.9 828.68,-989.79 105.79,-123.65 212.05,-246.77 320.64,-367.7 1.34,-1.52 6.24,-6.53 12.98,-13.3 23.81,-23.99 73.16,-72.81 116.63,-117.33 21.73,-22.26 41.98,-43.46 57.04,-60.19 7.51,-8.36 13.72,-15.59 18.38,-21.55l5.96 -8.47 2.44 -4.65c0.7,-1.91 1.69,-4.03 1.8,-8.51l-1.66 -7.79 -0.04 -0.07 -16.01 7.37 -16.06 7.3 14.96 -6.81 -16.47 0 1.51 6.81 14.96 -6.81 -16.47 0 12.87 0 -11.81 -5.39c-0.07,0.42 -0.89,1.27 -1.06,5.39l12.87 0 -11.81 -5.39 0.31 0.14 -0.31 -0.18 0 0.04 0.31 0.14 -0.31 -0.18c-0.64,1.27 -5.01,7.2 -11.15,14.29 -21.84,25.57 -67.7,72.49 -109.36,114.33 -20.85,20.99 -40.75,40.78 -56.24,56.27 -15.62,15.63 -26.38,26.39 -30.51,30.98 -108.87,121.28 -215.34,244.61 -321.21,368.33 -279.89,327.13 -555.16,658.21 -829.06,990.28 -119.38,144.71 -237.91,290.09 -357.04,434.91 -151.24,184.22 -281.98,396.59 -491.25,507.72l0 0c-16.4,8.85 -37.75,15.69 -54.04,15.55 -7.09,0 -13.06,-1.2 -17.57,-3.28 -4.55,-2.15 -7.83,-4.9 -10.76,-9.7l0.03 0c-2.61,-4.41 -3.59,-8.5 -3.63,-13.44 -0.07,-7.66 3.07,-17.57 8.85,-27.94 5.68,-10.37 13.69,-20.99 21.67,-30.52l0 0c264.16,-315.13 427.07,-697.68 623.39,-1053.81 114.19,-207.37 243.13,-408.87 405.48,-580.08 164.5,-173.77 368.48,-274 565.79,-412.96 189.9,-134.16 336.12,-351.68 459,-541.37l-14.82 -9.6 5.68 16.73c13.9,-4.73 26.92,-6.78 39.37,-6.78 25.68,0 49.32,8.72 71.01,22.62 32.53,20.77 59.76,53.37 78.36,80.85 9.31,13.69 16.51,26.07 21.34,34.96 2.4,4.45 4.23,8.01 5.43,10.41l1.73 3.56 -0.04 -0.07 16.06 -7.3z"></path> <path class="fil3" d="M8507.48 8570.38c0,-0.03 -2.4,-3.95 -6.14,-10.58 -5.6,-9.88 -14.11,-25.58 -21.2,-41.21 -7.12,-15.45 -12.49,-31.78 -12.63,-38.7l-0.03 -0.17c-0.32,-2.33 2.96,-14.04 9.14,-26.67 9.1,-19.37 23.38,-43.15 35.31,-61.74 6,-9.31 11.36,-17.39 15.24,-23.11 3.88,-5.71 6.21,-8.99 6.21,-8.99 5.61,-7.97 3.7,-18.98 -4.27,-24.59 -7.97,-5.61 -18.98,-3.7 -24.59,4.27 -0.11,0.17 -17.57,24.94 -35.21,54.15 -8.85,14.64 -17.71,30.34 -24.62,45.01 -6.77,14.93 -12.14,27.7 -12.49,41.67l0.07 2.08c0.67,11.18 4.13,22.29 8.47,33.94 13.12,34.46 36.33,72.42 36.58,72.91 5.05,8.33 15.88,11.01 24.2,5.93 8.36,-5.04 11.01,-15.87 5.96,-24.2z"></path> <path class="fil3" d="M8724.27 8736.86c1.16,0.31 32.84,15.8 66.95,16.08 8.57,0 17.54,-1.05 26.32,-4.19 8.75,-3.11 17.39,-8.58 24.02,-16.76l0 0.03c7.91,-9.8 18.31,-26.21 30.59,-46.56 36.51,-60.65 86.43,-153.28 86.5,-153.43 3.28,-6.13 2.68,-13.68 -1.59,-19.19 -0.31,-0.35 -30.72,-39.51 -73.02,-81.59 -21.2,-21.03 -45.37,-42.8 -70.56,-60.93 -25.26,-18.03 -51.4,-32.67 -78.03,-38.52 -9.49,-2.08 -18.91,3.98 -20.96,13.51 -2.08,9.52 3.95,18.91 13.48,20.95 18.94,4.03 42.02,16.2 64.95,32.74 34.5,24.73 68.89,58.81 94.33,86.57 12.73,13.87 23.28,26.18 30.62,34.96 3.63,4.41 6.49,7.91 8.43,10.34l2.89 3.63 13.94 -10.83 -15.56 -8.36c-0.03,0.07 -22.12,41.07 -47.52,86.12 -12.7,22.54 -26.21,46.07 -38.13,65.82 -11.79,19.69 -22.4,36.06 -27.7,42.48l-0.03 0c-2.19,2.64 -4.76,4.41 -8.57,5.82 -3.78,1.37 -8.79,2.12 -14.4,2.12 -11.32,0.03 -24.83,-3.07 -35.06,-6.39 -5.15,-1.62 -9.53,-3.28 -12.53,-4.52l-3.45 -1.44 -0.99 -0.46c-8.86,-4.09 -19.33,-0.28 -23.46,8.57 -4.09,8.82 -0.28,19.3 8.54,23.43z"></path> <path class="fil3" d="M9083.6 8513.23c175.76,169.37 617.44,596.65 1026.55,981.68 204.58,192.51 400.97,374.43 552.06,508.38 75.57,67 139.78,121.99 188.25,160.48 24.27,19.26 44.55,34.36 60.71,44.98 8.11,5.33 15.17,9.53 21.55,12.67 6.57,2.99 11.82,5.46 20.01,5.71 15.2,0 28.89,-3.31 39.26,-12.56 10.44,-9.24 14.36,-22.79 14.22,-35.1 -0.18,-19.23 -7.34,-39.19 -17.82,-61.35 -31.61,-65.72 -97.4,-149.68 -140.44,-204.71 -10.65,-13.55 -30.34,-34.12 -57.99,-61.92 -96.6,-96.83 -288.65,-277.77 -478.48,-473.88 -189.72,-195.87 -377.29,-407.53 -462.98,-561.77 -131.41,-235.33 -394.76,-383.71 -547.73,-449.05 -8.96,-3.81 -19.33,0.39 -23.14,9.35 -3.81,8.96 0.36,19.3 9.32,23.14 148.97,63.08 406.85,210.29 530.71,433.71 102.24,183.34 333.84,433.88 549.95,652.36 108.02,109.07 212.09,209.9 293.86,289.45 40.86,39.76 76.13,74.19 103.47,101.6 27.31,27.34 46.89,48.05 55.25,58.77 28.57,36.44 66.96,85.66 97.89,132.4 15.46,23.32 29.04,46.04 38.49,65.79 9.56,19.65 14.54,36.73 14.36,46.11 -0.14,6.28 -1.38,7.76 -2.5,8.86 -1.17,1.16 -5.37,3.52 -15.7,3.52l0 5.08 0.98 -5.01 -0.98 -0.07 0 5.08 0.98 -5.01c-0.14,0.07 -3.95,-1.2 -8.92,-3.98 -20.18,-10.83 -60.96,-41.52 -114.69,-86.26 -188.88,-156.95 -545.82,-489.48 -892.03,-817.98 -346.29,-328.58 -682.13,-653.38 -829.98,-795.87 -7.02,-6.77 -18.21,-6.56 -24.94,0.46 -6.78,6.98 -6.57,18.17 0.45,24.94z"></path> <path class="fil3" d="M8473.65 8525.97l-302.29 -17.68 0 0 -160.76 -9.59 -0.04 0 -378.78 -22.16 0 0 -159.03 -9.42 0 0 -347.73 -20.35 -1.03 17.6 17.36 -3.24c0,0 -0.77,-4.06 -1.97,-11.82 -3.64,-23.18 -10.94,-77.79 -10.91,-139.03 -0.03,-45.9 4.13,-95.5 16.44,-137.87 12.32,-42.54 32.5,-76.87 62.62,-95.74l0.04 0c41.8,-26.64 132.57,-61.07 237.56,-93.59 105.2,-32.71 225.46,-64.24 329.53,-87.63l0 0c99.59,-22.51 185.31,-37.57 225.81,-38.74 5.47,-0.14 11.29,-0.25 17.43,-0.25 33.65,0 76.48,2.51 121.85,6.46l0 0c66.57,5.75 138.53,14.5 196.21,22.08l0.11 0c14.39,1.8 32.7,2.83 49.88,3.78 17.04,0.92 33.23,1.83 40.89,2.96 9.66,1.41 18.59,-5.25 20,-14.92 1.41,-9.63 -5.29,-18.59 -14.92,-19.97 -10.87,-1.55 -26.81,-2.33 -44.03,-3.31 -17.07,-0.92 -35.03,-1.98 -47.45,-3.53l0.11 0c-58,-7.62 -130.32,-16.41 -197.77,-22.23l0.04 0c-46.04,-4.02 -89.57,-6.59 -124.92,-6.59 -6.46,0 -12.63,0.1 -18.52,0.28 -46.22,1.52 -131.55,16.86 -232.48,39.55l0 0c-104.99,23.63 -225.92,55.31 -332.25,88.37 -106.47,33.19 -197.52,67.02 -245.92,97.43l0 0c-40.53,25.65 -64.03,68.69 -77.68,115.79 -13.69,47.3 -17.85,99.69 -17.85,147.67 0,85.3 13.37,156.7 13.47,157.34 1.48,7.93 8.22,13.9 16.3,14.35l347.7 20.36 0 0 159.03 9.42 0 0 378.81 22.15 -0.03 0 160.8 9.6 0 0 302.33 17.67c9.7,0.6 18.06,-6.84 18.62,-16.58 0.57,-9.7 -6.84,-18.06 -16.58,-18.62z"></path> <path class="fil3" d="M7831.14 9226.48l31.5 -719.07c0.42,-9.74 -7.13,-17.96 -16.83,-18.38 -9.73,-0.42 -17.99,7.13 -18.41,16.86l-31.5 719.03c-0.46,9.74 7.09,18 16.82,18.42 9.74,0.42 17.99,-7.13 18.42,-16.86z"></path> <path class="fil3" d="M7770.78 9798.72l-6.92 161.04 -0.31 2.65 -0.08 1.27 -3.63 83.01 0 0.77 0 0.11 -129.26 4682.91c-0.28,9.73 7.41,17.85 17.15,18.14 9.74,0.24 17.85,-7.42 18.1,-17.14l129.25 -4683.17 0.04 -0.5 0 -0.35 -17.64 0 17.6 0.78 3.6 -82.41 0.32 -2.65 0.07 -1.27 6.95 -161.68c0.42,-9.73 -7.13,-17.95 -16.86,-18.37 -9.74,-0.43 -17.99,7.16 -18.38,16.86z"></path> <path class="fil3" d="M8439.82 14730.59c-13.86,-659.91 -137.55,-3445.58 -151.34,-4234.85 -4.38,-248.32 -8.36,-487.54 -12.03,-708.17l0 0c-2.93,-193.32 -5.43,-372.43 -7.27,-530.44l-17.64 0.22 17.64 0 0 -8.05 0 -0.35c0,-9.74 -7.9,-17.64 -17.64,-17.64 -9.73,0 -17.64,7.9 -17.64,17.64l0 0.35 0 8.05 0 0.17c1.84,158.08 4.34,337.26 7.27,530.58l0 0.03c3.67,220.67 7.66,459.89 12.03,708.24 13.83,790.33 137.51,3576.04 151.34,4234.95 0.21,9.74 8.26,17.51 18.03,17.3 9.74,-0.23 17.46,-8.26 17.25,-18.03z"></path> <path class="fil3" d="M8254.29 8513.02l-1.51 -0.07c-5.54,-0.04 -10.13,2.72 -12.28,4.83 -4.2,4.27 -4.44,6.49 -5.18,8.22l-1.63 7.62c-1.06,8.43 -1.59,21.7 -1.97,41.63 -0.39,19.79 -0.53,45.75 -0.53,77.79 0,60.85 0.56,143.54 1.27,246.66 0.07,9.74 8.01,17.57 17.78,17.5 9.73,-0.07 17.57,-8.01 17.5,-17.75 -0.71,-103.11 -1.27,-185.77 -1.27,-246.41 0,-40.15 0.24,-70.66 0.84,-90.88 0.32,-10.05 0.71,-17.6 1.17,-22.05l0.42 -3.49 -11.01 -2.61 10.02 5.19 0.99 -2.58 -11.01 -2.61 10.02 5.19 -14.53 -7.52 11.11 12 3.42 -4.48 -14.53 -7.52 11.11 12 -11.71 -12.67 0 17.22c5.32,0.03 9.73,-2.61 11.71,-4.55l-11.71 -12.67 0 17.22 0 -17.43 -1.48 17.36 1.48 0.07 0 -17.43 -1.48 17.36c9.7,0.84 18.23,-6.35 19.08,-16.06 0.81,-9.73 -6.38,-18.27 -16.09,-19.08z"></path> <path class="fil3" d="M8141.26 7845.32c-87.52,27.97 -428.13,140.37 -464.96,202.35 -51.15,86.36 -48.89,339.9 -45.58,446.48l-158.99 -9.42c-3.11,-129.79 -1.55,-376.63 50.69,-463.94 42.65,-50.77 146.3,-101.81 248.36,-142.56 100.26,-22.61 185.81,-37.78 229.13,-39.12 36.83,-1.17 87.31,1.55 141.35,6.21z"></path> <path class="fil3" d="M8429.38 7880.03c0,0 -204.58,93.56 -241.62,192.93 -31.04,82.8 -21.7,361.21 -17.46,452.94l-160.76 -9.6c0.39,-115.92 3.35,-390.74 19.61,-462.17 20.53,-91.09 309.11,-186.62 309.11,-186.62l68.79 9.38 22.33 3.14z"></path> <path class="fil3" d="M8255.07 9770.6c-49.74,11.36 -151.87,31.26 -281.48,38.28 -9.35,0.53 -16.65,8.25 -16.65,17.6l0 686.58c0,8.75 6.42,16.19 15.06,17.46 0.6,0.07 46,6.74 110.24,6.74 55.81,-0.04 125.84,-4.98 193.43,-24.06 9.39,-2.65 14.82,-12.38 12.17,-21.77 -2.64,-9.38 -12.38,-14.81 -21.76,-12.17 -62.94,17.82 -130.18,22.72 -183.84,22.72 -30.9,0 -57.36,-1.62 -75.95,-3.21 -9.35,-0.81 -16.68,-1.59 -21.69,-2.19 -5.01,-0.6 -7.48,-0.95 -7.48,-0.95l-2.54 17.43 17.64 0 0 -686.58 -17.64 0 0.95 17.64c132.15,-7.16 236.15,-27.45 287.37,-39.12 9.49,-2.15 15.45,-11.61 13.3,-21.1 -2.19,-9.52 -11.64,-15.45 -21.13,-13.3l0 0z"></path> <path class="fil3" d="M7845.04 8506.63c0,0 149.86,185.88 407.74,217.95l-2.05 -201.61 -405.69 -16.34z"></path> <path class="fil4" d="M8002.31 13913.13c9.7,-1073.22 20.53,-2738.23 29.77,-3377.21 14.75,0.77 31.68,1.34 50.16,1.34 49.75,-0.04 110.81,-3.95 171.38,-18.35 11.5,600.01 79.73,2230.12 120.83,3316.26 -92.11,2.15 -183.83,26.07 -269.63,49.98 -35.31,9.84 -69.64,19.69 -102.51,27.98zm336.47 -1904.51c-24.48,-639.16 -45.08,-1215.21 -50.27,-1511.54 0.04,-0.78 0,-1.52 -0.07,-2.3 -1.02,-59.83 -2.08,-119.16 -3.07,-177.83l53.41 1691.67zm-256.22 -1506.64c-0.1,0 -0.21,0 -0.32,0 -18.37,0 -35.13,-0.56 -49.63,-1.38 3.46,-227.5 6.56,-450.21 9.31,-661.31 85.37,-7.76 154.77,-20.15 199.6,-29.6 3.5,210.61 7.31,437.66 11.43,673.06 -58.91,14.96 -120.47,19.23 -170.39,19.23z"></path> <path class="fil5" d="M8042.52 9803.8c0.21,-10.87 0.35,-21.63 0.35,-32.39l0.04 -0.03c0,10.79 -0.18,21.55 -0.39,32.42l0 0z"></path> <path class="fil4" d="M7795.93 10028.55l2.75 -62.72 0.32 -2.65 0.07 -1.27 6.77 -157.51c79.87,-95.71 159.99,-191.24 240.42,-286.46 -0.99,81.92 -2.04,166.48 -3.35,253.16 0,0.1 0,0.21 0,0.28l-0.04 0.03 0 0 -33.79 35.21c-11.57,0.85 -23.39,1.62 -35.49,2.26 -9.35,0.53 -16.65,8.25 -16.65,17.6l0 34.43 -161.01 167.64z"></path> <path class="fil4" d="M8042.52 9803.8c0.21,-10.87 0.39,-21.63 0.39,-32.42 0,-0.07 0,-0.18 0,-0.28 1.31,-86.68 2.36,-171.24 3.35,-253.16 62.48,-74.01 125.17,-147.85 188.1,-221.47 1.73,144.32 3.99,305.05 6.6,477.27 -42.72,9.24 -112.04,22.01 -198.44,30.06z"></path> <path class="fil6" d="M7805.84 9804.4l0.18 -4.17c0.11,-2.68 -0.39,-5.22 -1.34,-7.54l241.86 -298.38 0 -2.51 27.66 -31.64 0.46 -0.53 48.05 -59.3 0.56 3.84 0.07 -0.1 110.81 -126.83c0.07,6.39 0.14,12.81 0.21,19.23 -62.93,73.62 -125.62,147.46 -188.1,221.47 -80.43,95.22 -160.55,190.75 -240.42,286.46z"></path> <path class="fil6" d="M7772.44 10053.04l24.41 -250.69 7.83 -9.66c0.95,2.32 1.45,4.86 1.34,7.54l-0.18 4.17 -6.77 157.51 -0.07 1.27 -0.32 2.65 -2.75 62.72 -23.49 24.49z"></path> <path class="fil6" d="M8374.45 13835.17c-41.1,-1086.14 -109.33,-2716.25 -120.83,-3316.26 7.38,-1.72 14.72,-3.63 22.05,-5.71 7.48,-2.12 12.49,-8.75 12.84,-16.12 5.19,296.33 25.79,872.38 50.27,1511.54l57.65 1826.48c-2.86,-0.04 -5.75,-0.08 -8.61,-0.08 -4.44,0 -8.92,0.04 -13.37,0.15zm-86.01 -3340.39c-0.07,-1.13 -0.28,-2.22 -0.6,-3.35 -2.18,-7.76 -9.27,-12.84 -16.96,-12.84 -1.59,0 -3.22,0.21 -4.8,0.67 -4.34,1.24 -8.72,2.4 -13.13,3.49 -4.12,-235.4 -7.93,-462.45 -11.43,-673.06 7.91,-1.66 15.07,-3.25 21.38,-4.69 2.3,-0.53 4.38,-1.45 6.21,-2.75l16.26 514.7c0.99,58.67 2.05,118 3.07,177.83zm-47.48 -721.04c-2.61,-172.22 -4.87,-332.95 -6.6,-477.27 -0.07,-6.42 -0.14,-12.84 -0.21,-19.23l17.39 -19.89 0.36 -0.39 16.29 515.79c-2.71,-1.65 -5.89,-2.57 -9.17,-2.57 -1.3,0 -2.64,0.14 -3.95,0.42l0 0c-4.3,0.99 -9.03,2.05 -14.11,3.14z"></path> <path class="fil6" d="M8082.24 10537.26c-18.48,0 -35.41,-0.57 -50.16,-1.34 0.07,-6 0.18,-11.86 0.25,-17.64 0.1,-5.89 0.17,-11.78 0.28,-17.68 14.5,0.82 31.26,1.38 49.63,1.38 0.11,0 0.22,0 0.32,0 49.92,0 111.48,-4.27 170.39,-19.23 4.41,-1.09 8.79,-2.25 13.13,-3.49 1.58,-0.46 3.21,-0.67 4.8,-0.67 7.69,0 14.78,5.08 16.96,12.84 0.32,1.13 0.53,2.22 0.6,3.35 0.07,0.78 0.11,1.52 0.07,2.3 -0.35,7.37 -5.36,14 -12.84,16.12 -7.33,2.08 -14.67,3.99 -22.05,5.71 -60.57,14.4 -121.63,18.31 -171.38,18.35zm-125.3 -676.35l0 -34.43c0,-9.35 7.3,-17.07 16.65,-17.6 12.1,-0.64 23.92,-1.41 35.49,-2.26l-52.14 54.29zm84.98 -21.62c0.07,-5.86 0.14,-11.75 0.25,-17.57 0.11,-6.03 0.25,-12 0.35,-17.92l0 0c86.4,-8.05 155.72,-20.82 198.44,-30.06 5.08,-1.09 9.81,-2.15 14.11,-3.14l0 0c1.31,-0.28 2.65,-0.42 3.95,-0.42 3.28,0 6.46,0.92 9.17,2.57l0.92 29.5c-1.83,1.3 -3.91,2.22 -6.21,2.75 -6.31,1.44 -13.47,3.03 -21.38,4.69 -44.83,9.45 -114.23,21.84 -199.6,29.6z"></path> <path class="fil5" d="M7102.19 10089.9l0 0c412.36,-475.61 875.74,-795.3 1117.25,-966.61 0.25,-0.18 0.49,-0.35 0.74,-0.53 -0.25,0.18 -0.49,0.35 -0.74,0.53 -241.51,171.31 -704.89,491 -1117.25,966.61zm1118.03 -967.17c211.35,-150.39 379.69,-465.6 428.3,-562.9 -48.4,96.98 -216.74,412.4 -428.3,562.9zm-167.11 -291.96c0.45,-58.81 0.77,-114.23 1.02,-165.84l0 0c-0.25,51.61 -0.57,107.03 -1.02,165.84zm273.65 -760.56c-15.95,-0.91 -41.99,-2.36 -75.75,-4.12 33.8,1.76 59.83,3.21 75.75,4.12l0 0z"></path> <path class="fil4" d="M8790.94 8717.67c-8.93,0 -19.23,-1.94 -28.19,-4.41 0.07,-0.11 0.18,-0.18 0.25,-0.29 7.51,-8.36 13.72,-15.59 18.38,-21.55l5.96 -8.47 2.44 -4.65c0.7,-1.91 1.69,-4.03 1.8,-8.51l-1.66 -7.79 -0.04 -0.07 -16.01 7.37 -0.11 0.04 0 0 0.11 -0.04 16.01 -7.37c-0.39,-0.81 -19.54,-42.58 -54.68,-85.2 -17.64,-21.31 -39.3,-42.9 -65.16,-59.51 -25.78,-16.58 -56.19,-28.22 -90.06,-28.22 -0.04,0 -0.04,0 -0.07,0 -16.3,0 -33.3,2.71 -50.66,8.64 -3.78,1.27 -6.95,3.74 -9.1,7.12 -8.75,13.52 -17.61,27.17 -26.6,40.89 -1.59,-2.96 -3.21,-6.1 -4.87,-9.35 -0.21,-0.46 -0.42,-0.91 -0.67,-1.34 -2.68,-5.29 -5.36,-10.86 -7.87,-16.37 -7.12,-15.45 -12.49,-31.78 -12.63,-38.7l-0.03 -0.17c-0.32,-2.33 2.96,-14.04 9.14,-26.67 9.1,-19.37 23.38,-43.15 35.31,-61.74 6,-9.31 11.36,-17.39 15.24,-23.11 3.88,-5.71 6.21,-8.99 6.21,-8.99 5.61,-7.97 3.7,-18.98 -4.27,-24.59 -3.07,-2.19 -6.63,-3.21 -10.13,-3.21 -5.53,0 -11,2.57 -14.46,7.48 -0.11,0.17 -17.57,24.94 -35.21,54.15 -7.93,13.12 -15.91,27.16 -22.47,40.5 -64.63,-68.83 -94.79,-163.23 -94.79,-261.27 -0.04,-76.73 18.59,-155.26 52.99,-223.8 27.72,-54.96 62.26,-87.38 104.74,-107.99 42.44,-20.49 93.8,-28.64 153.45,-30.9 0.04,0 0.04,0 0.08,0l1.86 0c8.15,0 42.69,0.74 103.69,12.21 -42.83,19.54 -113.95,73.23 -149.83,219.25 -3.95,16.16 -5.85,31.92 -5.85,47.38 0.1,185.42 274.99,317.43 535.55,365.51 -56.48,27.09 -120.97,49.95 -188.46,65.62 -0.6,-2.4 -1.65,-4.7 -3.21,-6.71 -0.31,-0.35 -30.72,-39.51 -73.02,-81.59 -21.2,-21.03 -45.37,-42.8 -70.56,-60.93 -25.26,-18.03 -51.4,-32.67 -78.03,-38.52 -1.24,-0.28 -2.51,-0.39 -3.74,-0.39 -8.12,0 -15.42,5.61 -17.22,13.9 -2.08,9.52 3.95,18.91 13.48,20.95 18.94,4.03 42.02,16.2 64.95,32.74 34.5,24.73 68.89,58.81 94.33,86.57 12.73,13.87 23.28,26.18 30.62,34.96 1.52,1.84 2.93,3.53 4.16,5.05 -8.15,14.96 -24.27,44.41 -41.98,75.85 -12.7,22.54 -26.21,46.07 -38.13,65.82 -11.79,19.69 -22.4,36.06 -27.7,42.48l-0.03 0c-2.19,2.64 -4.76,4.41 -8.57,5.82 -3.74,1.34 -8.68,2.12 -14.29,2.12 -0.04,0 -0.07,0 -0.11,0 -0.1,0 -0.17,0 -0.28,0z"></path> <path class="fil4" d="M8051.24 9049.84c0.74,-77.29 1.37,-150.49 1.87,-219.07 0.45,-58.81 0.77,-114.23 1.02,-165.84 50.8,24.83 110.14,45.82 177.23,56.62 0.22,48.36 0.6,105.55 1.06,171.13 -50.59,54.15 -104.46,103.22 -162.03,143.79 -6.35,4.48 -12.77,8.96 -19.15,13.37z"></path> <path class="fil4" d="M10953.4 10191.85c-1.06,-0.31 -4.41,-1.58 -8.61,-3.91 -20.18,-10.83 -60.96,-41.52 -114.69,-86.26 -188.88,-156.95 -545.82,-489.48 -892.03,-817.98 -334.12,-317.01 -658.46,-630.49 -813.68,-780.14 43.46,-18.23 83.57,-39.05 118.78,-61.59 19.29,-12.38 37.14,-25.29 53.23,-38.63 150.21,65.19 399.98,210.89 521.26,429.65 102.24,183.34 333.84,433.88 549.95,652.36 108.02,109.07 212.09,209.9 293.86,289.45 40.86,39.76 76.13,74.19 103.47,101.6 27.31,27.34 46.89,48.05 55.25,58.77 28.57,36.44 66.96,85.66 97.89,132.4 15.46,23.32 29.04,46.04 38.49,65.79 9.56,19.65 14.54,36.73 14.36,46.11 -0.14,6.28 -1.38,7.76 -2.5,8.86 -1.13,1.12 -5.19,3.42 -15.03,3.52z"></path> <path class="fil4" d="M8444.16 8524.24l-188.17 -11.01c-0.57,-0.07 -1.13,-0.18 -1.7,-0.21l-1.51 -0.07c-0.04,0 -0.11,0 -0.14,0 -0.36,0 -0.74,0 -1.1,0.03l-80.18 -4.69 0 0 -1.84 -0.1c-4.41,-105.59 -11,-357.23 18.24,-435.23 1.24,-3.31 2.65,-6.63 4.23,-9.91 21.56,1.06 41.35,2.08 59.02,3.04 33.76,1.76 59.8,3.21 75.75,4.12 -6.6,33.69 -9.99,67.98 -9.99,102.06 -0.03,110.74 36.02,220.06 116.49,297.68 -0.6,3.21 -0.95,6.45 -1.06,9.77l0.07 2.08c0.67,11.18 4.13,22.29 8.47,33.94 1.09,2.82 2.22,5.68 3.42,8.5z"></path> <path class="fil4" d="M7102.19 10089.9c5.72,-10.55 11.5,-21.1 17.29,-31.57 114.19,-207.37 243.13,-408.87 405.48,-580.08 164.5,-173.77 368.48,-274 565.79,-412.96 168.2,-118.85 302.15,-303.1 415.96,-475.47 0.28,-0.39 0.53,-0.78 0.77,-1.17 13.2,-20 26.14,-39.86 38.81,-59.4 11.78,-3.46 22.96,-4.98 33.69,-4.98 25.68,0 49.32,8.72 71.01,22.62 0.99,0.63 1.98,1.3 2.97,1.94 -1.59,3.28 -3.43,6.95 -5.44,11 -48.61,97.3 -216.95,412.51 -428.3,562.9 0,0.03 -0.04,0.03 -0.04,0.03 -0.25,0.18 -0.49,0.35 -0.74,0.53 -241.51,171.31 -704.89,491 -1117.25,966.61z"></path> <path class="fil6" d="M8433.26 8469.95c-80.47,-77.62 -116.52,-186.94 -116.49,-297.68 0,-34.08 3.39,-68.37 9.99,-102.06l0 0c6.56,0.36 11.43,0.64 14.35,0.81 12.24,-62.61 38.95,-127.91 87.32,-179.1 0.31,0 0.67,0.03 0.98,0.03 8.61,0 16.16,-6.35 17.43,-15.13 0.14,-0.95 0.21,-1.94 0.18,-2.89 47.27,-41.81 111.93,-71.09 198.96,-76.41 0.74,2.22 1.94,4.33 3.53,6.13 3.35,3.78 8.19,5.97 13.23,5.97 0.18,0 0.32,0 0.49,-0.04 -59.65,2.26 -111.01,10.41 -153.45,30.9 -42.48,20.61 -77.02,53.03 -104.74,107.99 -34.4,68.54 -53.03,147.07 -52.99,223.8 0,98.04 30.16,192.44 94.79,261.27 -0.74,1.52 -1.45,3 -2.15,4.51 -5.19,11.4 -9.53,21.52 -11.43,31.9zm-69.75 -154.03c18.56,61.24 44.56,100.65 63.89,123.23 -18.2,-28.75 -43.81,-70.88 -63.89,-123.23z"></path> <path class="fil6" d="M8955.62 8537.61c1.94,-3.57 3,-5.54 3.03,-5.58 2.08,-3.88 2.61,-8.32 1.62,-12.48 67.49,-15.67 131.98,-38.53 188.46,-65.62 9.77,1.83 19.54,3.49 29.28,5.08l-1.34 2.36c33.69,-16.82 70.45,-37.89 107.03,-63.92 0.99,0.7 2.08,1.34 3.25,1.83 3.1,1.31 6.28,2.65 9.45,4.06 -16.09,13.34 -33.94,26.25 -53.23,38.63 -35.21,22.54 -75.32,43.36 -118.78,61.59 -5.65,-5.46 -11.12,-10.72 -16.3,-15.73 -3.42,-3.32 -7.83,-4.94 -12.24,-4.94 -4.63,0 -9.25,1.8 -12.7,5.4 -4.7,4.83 -6.04,11.68 -4.1,17.67l-42.19 10.8 -2.47 0.63 -78.77 20.22z"></path> <path class="fil6" d="M8768.86 7821.79l0 0c-61,-11.47 -95.54,-12.21 -103.69,-12.21l-1.86 0c-0.04,0 -0.04,0 -0.08,0 -0.17,0.04 -0.31,0.04 -0.49,0.04 -5.04,0 -9.88,-2.19 -13.23,-5.97 -1.59,-1.8 -2.79,-3.91 -3.53,-6.13 9.49,-0.6 19.23,-0.89 29.25,-0.89 38.7,0 81.49,4.45 128.66,14.26 0,0 -14.15,1.37 -35.03,10.9z"></path> <path class="fil6" d="M7047.97 10153.72c0,0 220.59,-485.81 464.19,-687.6 92.99,-77.05 198.26,-152.89 298.48,-222.99 0.67,0.1 1.38,0.17 2.08,0.21 0.28,0 0.53,0 0.81,0 8.54,0 15.74,-6.1 17.29,-14.36 154.34,-107.56 293.55,-200.69 352.74,-262.5 9.46,-9.88 20.32,-21.94 32.14,-35.74 -56.37,51.54 -127.42,108.73 -164.64,137.87 0.03,-6.28 0.11,-12.52 0.18,-18.77 6.38,-4.41 12.8,-8.89 19.15,-13.37 57.57,-40.57 111.44,-89.64 162.03,-143.79 0,2.33 0.04,4.66 0.04,7.02 0.07,9.7 7.97,17.5 17.64,17.5 0.03,0 0.07,0 0.14,0 9.73,-0.07 17.57,-8.01 17.5,-17.75 -0.08,-10.65 -0.15,-21.09 -0.22,-31.29 70.98,-88.26 156.5,-202.78 211.42,-277.25 3.39,4.06 8.4,6.25 13.48,6.25 3.1,0 6.24,-0.81 9.1,-2.58 2.12,-1.27 3.85,-2.89 5.19,-4.76 -113.81,172.37 -247.76,356.62 -415.96,475.47 -197.31,138.96 -401.29,239.19 -565.79,412.96 -162.35,171.21 -291.29,372.71 -405.48,580.08 -5.79,10.47 -11.57,21.02 -17.29,31.57l0 0c-18.2,20.99 -36.26,42.23 -54.22,63.82zm1714.78 -1440.46c-1.76,-0.5 -3.49,-0.99 -5.15,-1.52l16.16 -42.37c0,0 0,0 0,-0.03l0 0 0.11 -0.04 16.01 -7.37 0.04 0.07 1.66 7.79c-0.11,4.48 -1.1,6.6 -1.8,8.51l-2.44 4.65 -5.96 8.47c-4.66,5.96 -10.87,13.19 -18.38,21.55 -0.07,0.11 -0.18,0.18 -0.25,0.29zm11.01 -43.92c-0.49,-1.49 -29.39,-87.99 -114.55,-131.34 -1.37,2.82 -3.1,6.45 -5.25,10.83 -0.99,-0.64 -1.98,-1.31 -2.97,-1.94 -21.69,-13.9 -45.33,-22.62 -71.01,-22.62 -10.73,0 -21.91,1.52 -33.69,4.98 -12.67,19.54 -25.61,39.4 -38.81,59.4 3.28,-5.43 3.53,-12.48 0,-18.27 0,-0.03 -2.4,-3.95 -6.14,-10.58 -2.22,-3.92 -4.9,-8.75 -7.79,-14.15 8.99,-13.72 17.85,-27.37 26.6,-40.89 2.15,-3.38 5.32,-5.85 9.1,-7.12 17.36,-5.93 34.36,-8.64 50.66,-8.64 0.03,0 0.03,0 0.07,0 33.87,0 64.28,11.64 90.06,28.22 25.86,16.61 47.52,38.2 65.16,59.51 35.14,42.62 54.29,84.39 54.68,85.2l-16.01 7.37 -0.11 0.04 0 0zm-220.17 -155.72c-6.03,0 -12.24,0.21 -18.59,0.63l0 0.07 98.11 12.53c-23.07,-8.12 -49.32,-13.23 -79.52,-13.23z"></path> <path class="fil4" d="M8009.61 8498.63l-162.56 -9.49c-0.43,-0.07 -0.81,-0.11 -1.24,-0.11 -0.28,0 -0.53,-0.03 -0.77,-0.03l-213.26 -12.46 0 0 -1.55 -0.1c-2.93,-114.69 -2.43,-346.89 46.07,-428.77 0.81,-1.41 1.8,-2.82 2.9,-4.23 118.39,2.68 241.79,7.26 349.67,11.96 -15.28,69.78 -18.63,319.93 -19.26,443.23zm-538.27 -31.58l-332.25 -19.47c-3.7,-24.06 -10.65,-77.54 -10.62,-137.3 -0.03,-45.9 4.13,-95.5 16.44,-137.87 12.32,-42.54 32.5,-76.87 62.62,-95.74l0.04 0c13.4,-8.54 31.82,-17.89 54.11,-27.69 54.4,-5.68 135.15,-7.94 228.5,-7.94 7.3,0 14.67,0 22.12,0.03 -40.33,95.85 -43.25,302.19 -40.96,425.98z"></path> <path class="fil6" d="M8492.42 8597.16c-5.08,0 -10.09,-2.19 -13.48,-6.25 4.94,-6.74 9.67,-13.16 14.11,-19.19 -2.82,-4.87 -5.68,-9.95 -8.57,-15.1 3.28,-2.96 5.47,-7.23 5.75,-12.03 0.18,-2.93 -0.39,-5.75 -1.55,-8.29 1.66,3.25 3.28,6.39 4.87,9.35 2.89,5.4 5.57,10.23 7.79,14.15 3.74,6.63 6.14,10.55 6.14,10.58 3.53,5.79 3.28,12.84 0,18.27 -0.24,0.39 -0.49,0.78 -0.77,1.17 -1.34,1.87 -3.07,3.49 -5.19,4.76 -2.86,1.77 -6,2.58 -9.1,2.58zm-4.41 -62.2c-2.86,-5.08 -8.15,-8.64 -14.36,-8.99l-5.96 -0.36c-9.88,-19.08 -17.36,-35.63 -17.85,-42.82l-0.78 41.73 -4.9 -0.28c-1.2,-2.82 -2.33,-5.68 -3.42,-8.5 -4.34,-11.65 -7.8,-22.76 -8.47,-33.94l-0.07 -2.08c0.11,-3.32 0.46,-6.56 1.06,-9.77 1.9,-10.38 6.24,-20.5 11.43,-31.9 0.7,-1.51 1.41,-2.99 2.15,-4.51 6.56,-13.34 14.54,-27.38 22.47,-40.5 17.64,-29.21 35.1,-53.98 35.21,-54.15 3.46,-4.91 8.93,-7.48 14.46,-7.48 3.5,0 7.06,1.02 10.13,3.21 7.97,5.61 9.88,16.62 4.27,24.59 0,0 -2.33,3.28 -6.21,8.99 -3.88,5.72 -9.24,13.8 -15.24,23.11 -11.93,18.59 -26.21,42.37 -35.31,61.74 -6.18,12.63 -9.46,24.34 -9.14,26.67l0.03 0.17c0.14,6.92 5.51,23.25 12.63,38.7 2.51,5.51 5.19,11.08 7.87,16.37zm-38.1 -54.18l-0.04 0.07 0 0.31c0,-0.07 0.04,-0.17 0.04,-0.24l0 -0.14z"></path> <path class="fil6" d="M8791.12 8743.17c-15.28,0 -30.24,-5.61 -41.24,-11.15l7.72 -20.28c1.66,0.53 3.39,1.02 5.15,1.52 8.96,2.47 19.26,4.41 28.19,4.41 0.11,0 0.18,0 0.28,0 0.04,0 0.07,0 0.11,0 5.61,0 10.55,-0.78 14.29,-2.12 3.81,-1.41 6.38,-3.18 8.57,-5.82l0.03 0c5.3,-6.42 15.91,-22.79 27.7,-42.48 11.92,-19.75 25.43,-43.28 38.13,-65.82 17.71,-31.44 33.83,-60.89 41.98,-75.85 -1.23,-1.52 -2.64,-3.21 -4.16,-5.05 -7.34,-8.78 -17.89,-21.09 -30.62,-34.96 -25.44,-27.76 -59.83,-61.84 -94.33,-86.57 -22.93,-16.54 -46.01,-28.71 -64.95,-32.74 -9.53,-2.04 -15.56,-11.43 -13.48,-20.95 1.8,-8.29 9.1,-13.9 17.22,-13.9 1.23,0 2.5,0.11 3.74,0.39 26.63,5.85 52.77,20.49 78.03,38.52 25.19,18.13 49.36,39.9 70.56,60.93 42.3,42.08 72.71,81.24 73.02,81.59 1.56,2.01 2.61,4.31 3.21,6.71 0.99,4.16 0.46,8.6 -1.62,12.48 -0.03,0.04 -1.09,2.01 -3.03,5.58l-23.29 5.96c0,0 -76.62,167.85 -113.45,191.81 -8.78,5.64 -18.34,7.79 -27.76,7.79z"></path> <path class="fil6" d="M10967.16 10214.36c-54.47,0 -122.88,-78.25 -122.88,-78.25l-1756.51 -1632.37 -8.72 2.22c-1.94,-5.99 -0.6,-12.84 4.1,-17.67 3.45,-3.6 8.07,-5.4 12.7,-5.4 4.41,0 8.82,1.62 12.24,4.94 5.18,5.01 10.65,10.27 16.3,15.73 155.22,149.65 479.56,463.13 813.68,780.14 346.21,328.5 703.15,661.03 892.03,817.98 53.73,44.74 94.51,75.43 114.69,86.26 4.2,2.33 7.55,3.6 8.61,3.91 9.84,-0.1 13.9,-2.4 15.03,-3.52 1.12,-1.1 2.36,-2.58 2.5,-8.86 0.18,-9.38 -4.8,-26.46 -14.36,-46.11 -9.45,-19.75 -23.03,-42.47 -38.49,-65.79 -30.93,-46.74 -69.32,-95.96 -97.89,-132.4 -8.36,-10.72 -27.94,-31.43 -55.25,-58.77 -27.34,-27.41 -62.61,-61.84 -103.47,-101.6 -81.77,-79.55 -185.84,-180.38 -293.86,-289.45 -216.11,-218.48 -447.71,-469.02 -549.95,-652.36 -121.28,-218.76 -371.05,-364.46 -521.26,-429.65 -3.17,-1.41 -6.35,-2.75 -9.45,-4.06 -1.17,-0.49 -2.26,-1.13 -3.25,-1.83 5.43,-3.85 10.83,-7.8 16.23,-11.85 188.95,76.09 446.69,282.43 512.34,403.93 66.32,123.08 334.57,438.85 334.57,438.85l687.18 695.82c0,0 210.39,257.35 154.55,285.33 -6.74,3.35 -13.94,4.83 -21.41,4.83z"></path> <path class="fil6" d="M8484.48 8556.62c-5.82,-10.37 -11.64,-21.02 -16.79,-31.01l5.96 0.36c6.21,0.35 11.5,3.91 14.36,8.99 0.25,0.43 0.46,0.88 0.67,1.34 1.16,2.54 1.73,5.36 1.55,8.29 -0.28,4.8 -2.47,9.07 -5.75,12.03zm-35.73 -14.46l-178.37 -10.48c0.57,-8.96 -5.68,-16.83 -14.39,-18.45l188.17 11.01 4.9 0.28 -0.31 17.64zm-211.92 -19.76l-66.81 -2.68c-0.15,-3.6 -0.32,-7.44 -0.5,-11.53l1.84 0.1 0 0 80.18 4.69c-4.97,0.32 -9.03,2.83 -11.04,4.8 -1.87,1.91 -2.96,3.42 -3.67,4.62zm-227.29 -9.13l-146.9 -5.9c0.39,-9.31 -6.49,-17.21 -15.59,-18.23l162.56 9.49c-0.04,5.11 -0.04,9.98 -0.07,14.64zm-182.14 -7.59l-196.68 -11.53c-0.14,-5.54 -0.31,-11.43 -0.49,-17.71l1.55 0.1 0 0 213.26 12.46c0,0 0,0 -0.04,0 -9.31,0 -17.07,7.3 -17.6,16.68zm-229.62 -13.47l-473.79 -27.84c-33.65,-92.18 -36.61,-351.01 74.16,-402.62 11.68,-5.44 33.62,-9.63 63.53,-12.77 -22.29,9.8 -40.71,19.15 -54.11,27.69l-0.04 0c-30.12,18.87 -50.3,53.2 -62.62,95.74 -12.31,42.37 -16.47,91.97 -16.44,137.87 -0.03,59.76 6.92,113.24 10.62,137.3l332.25 19.47c0.11,6.11 0.25,12 0.39,17.68l126.05 7.48zm831.63 -600.26c-0.31,0 -0.67,-0.03 -0.98,-0.03 5.85,-6.21 12.06,-12.24 18.59,-17.99 0.03,0.95 -0.04,1.94 -0.18,2.89 -1.27,8.78 -8.82,15.13 -17.43,15.13z"></path> <path class="fil6" d="M7813.53 9243.34c-0.28,0 -0.53,0 -0.81,0 -0.7,-0.04 -1.41,-0.11 -2.08,-0.21 6.74,-4.76 13.48,-9.46 20.18,-14.15 -1.55,8.26 -8.75,14.36 -17.29,14.36zm49.11 -735.97l-17.6 -0.74c0,0 0,0.04 0.03,0.07l-17.67 -1.02c0.53,-9.38 8.29,-16.68 17.6,-16.68 0.04,0 0.04,0 0.04,0 0.24,0 0.49,0.03 0.77,0.03 0.43,0 0.81,0.04 1.24,0.11 9.1,1.02 15.98,8.92 15.59,18.23z"></path> <path class="fil6" d="M8250.1 8917.2c-9.67,0 -17.57,-7.8 -17.64,-17.5 0,-2.36 -0.04,-4.69 -0.04,-7.02 -0.46,-65.58 -0.84,-122.77 -1.06,-171.13 7.02,1.13 14.15,2.11 21.35,3.03l0 161.85c4.87,-5.92 9.8,-12.03 14.81,-18.27 0.07,10.2 0.14,20.64 0.22,31.29 0.07,9.74 -7.77,17.68 -17.5,17.75 -0.07,0 -0.11,0 -0.14,0zm2.61 -199.08l-1.98 -195.15 -13.9 -0.57c0.71,-1.2 1.8,-2.71 3.67,-4.62 2.01,-1.97 6.07,-4.48 11.04,-4.8 0.36,-0.03 0.74,-0.03 1.1,-0.03 0.03,0 0.1,0 0.14,0l1.51 0.07c0.57,0.03 1.13,0.14 1.7,0.21 8.71,1.62 14.96,9.49 14.39,18.45l-17.67 -1.02 0 187.46z"></path> <path class="fil6" d="M7630.72 8494.15l-32.94 -1.94 -126.05 -7.48c-0.14,-5.68 -0.28,-11.57 -0.39,-17.68 -2.29,-123.79 0.63,-330.13 40.96,-425.98 52.88,0.21 109.29,1.06 166.9,2.37 -1.1,1.41 -2.09,2.82 -2.9,4.23 -48.5,81.88 -49,314.08 -46.07,428.77 0.18,6.28 0.35,12.17 0.49,17.71z"></path> <path class="fil6" d="M8170.02 8519.72l-160.48 -6.45c0.03,-4.66 0.03,-9.53 0.07,-14.64 0.63,-123.3 3.98,-373.45 19.26,-443.23 60.43,2.61 116.03,5.25 163.12,7.65 -1.58,3.28 -2.99,6.6 -4.23,9.91 -29.24,78 -22.65,329.64 -18.24,435.23 0.18,4.09 0.35,7.93 0.5,11.53z"></path> <path class="fil6" d="M8252.71 8724.58c-7.2,-0.92 -14.33,-1.9 -21.35,-3.03 -67.09,-10.8 -126.43,-31.79 -177.23,-56.62l0 0c0.25,-52.74 0.39,-101.5 0.42,-145.91l-209.48 -12.32c-0.03,-0.03 -0.03,-0.07 -0.03,-0.07l17.6 0.74 146.9 5.9 160.48 6.45 66.81 2.68 13.9 0.57 1.98 195.15 0 6.46z"></path> <path class="fil4" d="M8871.41 7619.64l-97.86 0c0.32,-5.67 0.53,-12.52 0.53,-20.53 0.03,-71.4 -17.71,-234.28 -144.01,-482.63 -4.69,-9.21 -9.13,-18.81 -13.3,-28.75 -16.75,-51.65 -29.49,-94.3 -39.51,-141.5 -11.96,-68.72 -17.42,-146.26 -17.39,-229.98 -0.11,-382.55 113,-892.63 213.68,-1293.35 32.14,-128.17 63.15,-248.29 93.2,-357.82 -73.52,439.13 -112.68,946.82 -112.71,1354.52 -0.04,266.88 16.76,490.89 51.65,624.77 57.43,220.03 68.89,389.61 68.93,489.97 0,39.58 -1.76,68.41 -3.21,85.3z"></path> <path class="fil6" d="M8869.57 7637.21l-97.61 0c0.46,-3.35 1.13,-9.2 1.59,-17.57l97.86 0c-1.02,11.61 -1.84,17.57 -1.84,17.57zm-133.1 0l-18.77 0 0 -5.61 19.79 -3.63 -0.49 4.55 -0.21 1.41 -0.04 0.21c-0.17,1.03 -0.28,2.05 -0.28,3.07z"></path> <path class="fil6" d="M8771.96 7637.21l-35.49 0c0,-1.02 0.11,-2.04 0.28,-3.07l0.04 -0.21 0.21 -1.41 0.49 -4.55 17.96 -3.28c0,0 -12.95,-150.85 -92.71,-397.23 -18.06,-55.77 -33.2,-100.36 -45.97,-139.73l0 0c4.17,9.94 8.61,19.54 13.3,28.75 126.3,248.35 144.04,411.23 144.01,482.63 0,8.01 -0.21,14.86 -0.53,20.53 -0.46,8.37 -1.13,14.22 -1.59,17.57zm-194.7 -690.98c-16.15,-76.03 -25.29,-163.73 -33.09,-319.44 -16.3,-325.86 239.86,-1317.73 315.56,-1602.6 12.53,-47.24 26.57,-97.16 41.56,-147.29 -0.67,3.6 -1.59,7.41 -2.22,11.22 -11.43,57.4 -22.19,116.56 -32.32,176.96l0 0c-30.05,109.53 -61.06,229.65 -93.2,357.82 -100.68,400.72 -213.79,910.8 -213.68,1293.35 -0.03,83.72 5.43,161.26 17.39,229.98l0 0z"></path> <path class="fil2" d="M9140.23 7218.36l-460.84 -375.78c0,0 -685.55,-690.35 -793.68,-890.62 -107.03,-197.73 -279.01,-356.87 -587.06,-480.66 -3.24,-1.45 -6.56,-2.93 -9.84,-3.99 0,0 140.94,-67.03 125.27,-238.86 -15.31,-171.88 -289.84,-446.06 -479.92,-541.45l-45.15 -433.31 -78.28 0 -23.29 -266.17c0,0 21.49,-1192.11 83.72,-1945.82 61.91,-754.1 118,-1132.81 151.87,-1592.3 33.48,-459.88 95,-368.79 -30.27,-446.72 -104.49,-64.81 -375.32,684.67 -395.71,761.5 -123.44,463.55 -457.66,1388.82 -457.55,1919.65 0.07,453 -67.45,625.51 120.33,903.14 236.11,349.11 151.09,646.33 151.09,646.33l-61.52 11.28 -50.24 9.11 -22.57 143.08 -16.76 108.87c0,0 -255.23,-11.64 -380.51,143.12 0,0 -418.74,-109.25 -952.53,-28.75 -534.14,80.43 -994.02,265.04 -1083.98,346.6 -89.92,81.57 -158.01,445.7 -91.76,632.85l1175.74 68.83 -0.25 5.75 661.5 54.54 0 -2.4 53.51 0.35 308.4 1.84 7.44 30.69 34.72 2.86 -34.72 -2.86 67.95 73.13c-82.27,128.16 -234.28,268.22 -318.03,365.44 -53.55,61.53 -119.27,86.4 -119.27,86.4l0 -5.75c-105.94,109.57 -285.12,285.43 -426.97,376.34 -109.64,70.27 -246.77,162.24 -355.04,235.66 -139.56,107.38 -356.37,351.68 -552.76,691.34 -205.29,355.03 -576.97,960.54 -774.58,1206.39 -89.56,254.53 395.94,-89.11 395.94,-89.11 0,0 692.89,-807.51 826.13,-967.35 57.89,-69.47 836.3,-927.84 836.3,-927.84l391.12 -423.09 399.03 -399.66c0,0 56.8,44.91 74.65,53.97 29.1,14.61 74.96,29.53 112.46,5.47 60.12,-38.95 185,-312.03 185,-312.03l166.41 -42.58 3.98 -1.13 108.13 -28.01 51.57 59.69 2255.21 1849.75 86.22 3.74 -37.08 -111.9 -193.53 -239.57z"></path> <polygon class="fil2" points="5191.51,7196.84 5121.52,8795.42 5012.3,11281.62 4897.61,13886.85 6083.55,13886.85 5928.18,6380.62 "></polygon> <path class="fil2" d="M5928.04 6298.77l0 -549.69 -661.49 -54.58 -51.44 1164.17c0,0 -26.1,19.05 -69.07,52.07 108.3,-73.42 245.39,-165.38 355.04,-235.66 141.85,-90.87 321.02,-266.73 426.96,-376.31z"></path> <path class="fil0" d="M7099.86 5590.75l-75.28 43.36 -71.82 29.45 -83.05 21.1 -3.98 1.13 -166.41 42.58c0,0 -124.88,273.08 -185,312.03 -37.5,24.06 -164.57,-18.34 -193.67,-32.91l110.17 -135.4c0,0 -30.76,-206.62 -303.85,-182.28l-101.63 155.79c0,0 -117.62,-192.23 -112.5,-219.18 5.08,-26.96 -162.42,-203.56 -188.24,-462.46 -25.86,-258.87 101.91,-765 765.35,-627.7 0,0 -214.39,20.89 -301.42,374.47 -87.03,353.91 437.98,603.89 911.33,680.02z"></path> <polygon class="fil0" points="5161.07,7619.47 5792.61,6963.16 5737.3,6592.14 5200.83,7211.62 "></polygon> <path class="fil0" d="M5611.67 5199.66l0 -84.84 361.92 356.48 -29.5 235.94 0 593.86c-93.94,94.34 -253.78,222.85 -328.78,281.48 8,-812.34 8.36,-1355.97 -3.64,-1382.92z"></path> <path class="fil0" d="M6083.55 14730.98l-590.24 0c14.93,-813.47 143.58,-5627.55 173.47,-8068.56l259.75 -248.99 157.02 8317.55z"></path> <path class="fil0" d="M9347.38 7580.87c-91.02,45.16 -2357.55,-1932.55 -2357.55,-1932.55l-46.28 -23.1c31.64,-8.75 172.12,-23.5 364.74,-168.42 308.01,123.82 539.68,398.57 646.74,596.3 108.13,200.24 707.68,708.17 707.68,708.17l566.49 556.5c0,0 209.19,217.6 118.18,263.1z"></path> <path class="fil0" d="M5741.14 4959.84c0,0 -1688.61,-99.41 -1869.19,-15.41 -180.59,83.96 -175.72,505.1 -120.9,655.03l2159.85 126.61 1.87 -99.8 5.04 -26.95c0,0 -222.64,-155.47 -176.67,-639.48z"></path> <path class="fil0" d="M6259.76 5707.24c0,0 -256.43,773.89 -722.7,964.31 -852.07,347.98 -1202.37,1081.55 -1895.76,1912.91 0,0 493.68,-817.88 768.49,-1253.81 406.44,-644.74 842.51,-829.45 1044.51,-950.03 458.43,-273.65 672.67,-690.81 672.67,-690.81l132.79 17.43z"></path> <path class="fil0" d="M6492.88 3289.16c172.72,591.39 104.14,964.53 104.14,964.53l-247.62 0 0 -9.11 61.52 -11.28c0,0 73.66,-164.15 -117.86,-539.54 -91.54,-179.43 -123.44,-128.45 -161.15,-657.19 -37.81,-529.49 428.35,-2394.55 723.55,-2910.6 39.44,-69 -683.82,2063.19 -362.58,3163.19z"></path> <path class="fil3" d="M6259.09 4487.86c-100.37,3.81 -190.61,17.25 -268.82,54.79 -78.24,37.46 -143.44,99.59 -192.09,196.6 -59.4,118.29 -91.33,252.73 -91.36,385.02 -0.04,183.62 61.8,363.86 199.14,488.14 7.23,6.53 18.38,6 24.94,-1.23 6.53,-7.24 5.96,-18.38 -1.27,-24.91 -128.41,-116.14 -187.5,-286 -187.54,-462 0,-126.61 30.73,-255.97 87.63,-369.15 45.97,-91.22 104.46,-146.22 175.83,-180.65 71.44,-34.4 156.77,-47.7 254.88,-51.37 9.7,-0.35 17.32,-8.53 16.93,-18.27 -0.35,-9.74 -8.53,-17.36 -18.27,-16.97z"></path> <path class="fil3" d="M6702.67 5745.65c187.57,-37.07 364.56,-106.96 497.42,-191.94 66.43,-42.51 121.88,-88.8 162.1,-137.27 40.11,-48.4 65.33,-99.34 69.11,-151.09 0.39,-5.58 0.6,-11.15 0.6,-16.8 -0.32,-97.19 -56.87,-204.68 -148.8,-308.68 -92.15,-103.89 -220.7,-204.25 -368.73,-284.12 -8.57,-4.62 -19.26,-1.45 -23.91,7.12 -4.63,8.58 -1.42,19.3 7.16,23.92 144.67,78.04 270.26,176.28 359.05,276.51 89.05,100.15 140.27,202.35 139.95,285.25 0,4.8 -0.18,9.57 -0.53,14.26 -2.89,41.73 -23.95,86.39 -61.06,131.12 -111.09,134.62 -364.11,263.11 -639.2,317.12 -9.56,1.87 -15.77,11.14 -13.87,20.7 1.87,9.56 11.15,15.77 20.71,13.9z"></path> <path class="fil3" d="M6951.91 4685.24l-45.3 -433.25c-0.91,-8.99 -8.46,-15.8 -17.53,-15.8l-589.95 0c-8.68,0 -16.09,6.31 -17.43,14.89l-39.37 251.67c-0.81,5.18 0.74,10.51 4.2,14.43 3.49,3.91 8.57,6.1 13.79,5.92l3.46 -0.03c20.25,0 129.82,2.75 328.68,56.48 9.39,2.54 19.09,-3 21.63,-12.42 2.54,-9.38 -3.03,-19.09 -12.42,-21.63 -201.72,-54.54 -314.46,-57.71 -337.89,-57.71l-4.62 0.07 0.6 17.6 17.43 2.76 37.04 -236.75 558.97 0 43.61 417.44c1.02,9.7 9.7,16.72 19.37,15.7 9.7,-0.99 16.72,-9.67 15.73,-19.37z"></path> <path class="fil3" d="M6443.94 4257.28c0.22,-1.09 3.74,-19.15 3.74,-53.72 0,-93.35 -25.71,-307.06 -209.86,-633.2 -72.68,-128.45 -103.19,-312.95 -103.08,-528.47 -0.15,-504.04 165.2,-1175.35 312.27,-1702.78 104.99,-376.66 201.55,-700.9 293.44,-934.23 45.94,-116.59 90.77,-210.47 134.27,-276.26 21.7,-32.88 43.08,-58.7 63.54,-76.8 20.53,-18.17 39.86,-28.43 57.82,-31.78l0 0 1.09 -0.15 1.94 0.71c1.8,1.06 6.14,6.07 9.91,15.91 5.86,14.61 10.76,38.59 13.8,69.64 3.1,31.11 4.58,69.43 4.58,113.77 0.04,261.87 -51.08,732.12 -104.07,1219.38 -53.02,487.5 -107.87,992.29 -115.25,1326.93 -14.74,673.67 -59.93,944.14 -60.01,1246.05 0,76.76 2.93,155.4 10.09,242.96 0.78,9.74 9.32,16.93 19.02,16.16 9.7,-0.78 16.93,-9.32 16.12,-19.02 -7.05,-86.64 -9.95,-164.25 -9.95,-240.1 -0.07,-297.89 45.16,-570.23 60.01,-1245.27 7.27,-331.82 62.02,-836.54 115.04,-1323.9 52.99,-487.54 104.25,-957.41 104.28,-1223.19 -0.03,-68.83 -3.38,-123.93 -11.5,-163.55 -4.13,-19.82 -9.28,-35.84 -17.14,-48.61 -3.99,-6.39 -8.79,-12.03 -15.07,-16.3 -6.17,-4.3 -14,-6.91 -21.8,-6.84l0 0 -7.69 0.74 0 0c-26.14,5.01 -50.87,19.08 -74.58,40.04 -41.48,36.83 -80.96,95.21 -121.03,172.61 -119.67,231.95 -242.82,636.62 -380.83,1131.64 -147.21,528.6 -313.48,1200.96 -313.58,1712.24 0.1,218.73 30.23,408.34 107.67,545.82 181.53,321.7 205.24,528.99 205.28,615.85 0,16.12 -0.81,28.08 -1.63,35.87 -0.38,3.92 -0.77,6.78 -1.05,8.58l-0.32 1.97 -0.07 0.35c-1.91,9.57 4.27,18.84 13.83,20.78 9.56,1.91 18.83,-4.27 20.77,-13.83z"></path> <path class="fil3" d="M6430.82 5872.09l15.81 -7.87c-0.5,-0.84 -24.77,-49.77 -69.15,-99.55 -22.19,-24.87 -49.49,-49.99 -81.77,-69.18 -32.25,-19.16 -69.78,-32.35 -111.44,-32.35 -20.08,0 -41.03,3.07 -62.59,9.84 -3.67,1.17 -6.95,3.56 -9.13,6.74 -155.69,222.67 -340.08,474.63 -573.02,626.43 -247.26,161.46 -509.77,280.24 -725.52,490.61 -210.01,204.89 -375.75,444.81 -521.9,690.21 -250.83,421.32 -457.34,868.71 -788.19,1233.41l-0.01 0c-11.08,12.28 -22.8,26.46 -32.11,42.05 -9.23,15.63 -16.42,32.92 -16.51,51.9l0 0c-0.05,12.06 3.27,24.73 10.57,35.98l0 0c7.89,12.31 19.16,21.1 31.42,26.28 12.29,5.26 25.5,7.2 38.75,7.23 30.34,-0.1 61.6,-10.12 87.03,-22.57l0 0c278.49,-137.55 446.73,-393.14 636.84,-606.46 151.59,-170.4 302.29,-341.39 454.02,-511.5 348.3,-390.52 698.15,-779.85 1053.89,-1164.37 134.55,-145.42 269.7,-290.27 407.78,-432.58 1.87,-1.91 8.04,-7.8 16.65,-15.77 30.3,-28.26 93.06,-85.65 148.31,-137.97 27.62,-26.18 53.34,-51.08 72.42,-70.7 9.53,-9.81 17.39,-18.24 23.21,-25.19 2.93,-3.49 5.33,-6.56 7.34,-9.66l2.89 -5.12c0.89,-2.08 2.05,-4.37 2.16,-9.28 0,-2.22 -0.36,-5.22 -1.98,-8.43l-15.77 7.87 -15.8 7.87 14.64 -7.31 -16.37 0 1.73 7.31 14.64 -7.31 -16.37 0 12.31 0 -11.18 -5.53c-0.04,0.35 -0.96,1.12 -1.13,5.53l12.31 0 -11.18 -5.53 -0.11 0.17c-1.06,1.91 -6.67,8.89 -14.57,17.32 -27.94,30.27 -86.25,85.45 -139.28,134.73 -26.52,24.66 -51.82,47.94 -71.5,66.18 -19.83,18.31 -33.59,31.04 -38.67,36.27 -138.43,142.62 -273.75,287.69 -408.37,433.17 -355.99,384.78 -705.98,774.24 -1054.31,1164.84 -151.8,170.25 -302.55,341.21 -454.06,511.53 -192.2,216.46 -358.39,466.65 -626.08,598.27l0 0c-21.48,10.69 -49.21,19.05 -71.44,18.95 -9.71,0 -18.23,-1.52 -24.89,-4.38 -6.68,-2.93 -11.61,-6.84 -15.62,-12.98l0 0c-3.57,-5.61 -4.91,-10.76 -4.95,-16.86 -0.08,-9.39 4.08,-21.38 11.55,-33.83 7.38,-12.46 17.69,-25.12 27.95,-36.41l0 0c335.46,-370.14 542.64,-820.03 792.38,-1239.1 145.3,-243.98 309.38,-481.26 516.18,-683.01 209.9,-205 469.72,-323.07 720.16,-486.31 240.52,-157.05 426.44,-412.67 582.65,-635.74l-14.47 -10.12 5.33 16.83c18.2,-5.72 35.49,-8.22 51.97,-8.22 34.11,0 65.26,10.69 93.41,27.41 42.23,24.97 77.05,63.67 100.82,96.17 11.93,16.22 21.14,30.86 27.34,41.38 3.07,5.25 5.4,9.45 6.95,12.34l1.73 3.25 0.5 0.95 15.8 -7.83z"></path> <path class="fil3" d="M5997.12 5777.65c0,0 -3.99,-6.6 -10.16,-17.46 -9.25,-16.3 -23.25,-42.05 -35,-67.98 -11.82,-25.72 -21.02,-52.6 -21.59,-66.89l0 -0.92c-0.35,-7.37 5.65,-26.77 15.91,-48.04 15.21,-32.32 38.7,-71.23 58.28,-101.71 9.81,-15.28 18.63,-28.47 24.98,-37.82 6.35,-9.38 10.19,-14.81 10.23,-14.81 5.61,-7.98 3.7,-18.98 -4.27,-24.59 -7.94,-5.61 -18.95,-3.74 -24.55,4.23 -0.15,0.21 -28.47,40.32 -57.01,87.45 -14.26,23.6 -28.58,48.93 -39.59,72.22 -10.86,23.56 -18.94,43.99 -19.26,63.07l0.07 2.83c0.96,16.12 6.21,33.51 13.09,51.89 20.82,54.65 58.49,116.38 58.74,116.84 5.04,8.33 15.91,10.97 24.24,5.93 8.32,-5.05 10.97,-15.91 5.89,-24.24z"></path> <path class="fil3" d="M6364.82 6032.82c1.16,0.31 52.35,24.83 104.42,25.11 13.09,0 26.39,-1.62 39.16,-6.14 12.7,-4.55 24.9,-12.24 34.29,-23.81 12.1,-14.89 29.1,-41.56 49,-74.47 59.26,-98.28 140.65,-249.06 140.72,-249.17 3.32,-6.13 2.68,-13.72 -1.62,-19.22 -0.28,-0.36 -49.64,-63.82 -118.11,-131.69 -34.22,-33.94 -73.24,-69.04 -113.63,-97.97 -40.43,-28.89 -82.09,-51.89 -123.09,-60.86 -9.49,-2.08 -18.9,3.99 -20.95,13.52 -2.05,9.49 3.99,18.91 13.51,20.95 33.3,7.13 71.86,27.66 110,55.07 57.25,40.99 113.7,96.87 155.5,142.35 20.92,22.71 38.21,42.86 50.24,57.29 6.03,7.23 10.72,13.01 13.9,16.97 3.17,3.95 4.79,6.03 4.79,6.03l13.94 -10.83 -15.52 -8.36c-0.04,0.03 -9.03,16.68 -23.25,42.58 -21.31,38.87 -54.33,98.42 -85.97,153.07 -15.81,27.34 -31.29,53.44 -44.74,75.03 -13.4,21.56 -25.01,38.84 -32.03,47.42 -4.97,6.03 -11.07,10.05 -18.87,12.87 -7.76,2.79 -17.15,4.13 -27.27,4.1 -20.29,0.07 -43.18,-5.33 -60.57,-10.91 -8.72,-2.75 -16.09,-5.53 -21.21,-7.62l-5.89 -2.47 -1.9 -0.84c-8.82,-4.09 -19.3,-0.25 -23.43,8.57 -4.09,8.82 -0.28,19.33 8.58,23.43z"></path> <path class="fil3" d="M6966.2 5661.13c223.45,196.43 781.61,680.4 1298.47,1115.41 258.41,217.52 506.48,422.73 697.3,573.76 95.42,75.53 176.49,137.44 237.66,180.76 30.59,21.63 56.17,38.63 76.41,50.45 10.13,5.93 18.91,10.58 26.67,13.97 7.91,3.28 14.26,5.68 22.62,5.89 18.41,-0.03 34.01,-3.6 46.04,-13.3 12.17,-9.74 17.32,-25.01 17.11,-39.16 -0.25,-21.94 -9.25,-44.91 -22.48,-70.41 -39.97,-75.78 -123.43,-173.04 -178.15,-236.79 -13.26,-15.41 -38.24,-39.22 -73.38,-71.4 -122.59,-112.18 -366.67,-321.91 -607.94,-549.24 -241.16,-227.08 -479.6,-472.4 -588.82,-651.61 -164.96,-270.06 -427.39,-442.81 -622.51,-518.62 -9.1,-3.49 -19.3,0.99 -22.83,10.09 -3.52,9.06 0.99,19.29 10.06,22.82 188.63,72.99 445.84,242.57 605.19,504.09 129.54,211.91 423.68,502.21 698.22,755.29 137.19,126.4 269.41,243.21 373.27,335.39 51.93,46.07 96.77,86.01 131.55,117.79 34.71,31.72 59.62,55.74 70.45,68.41 36.34,42.22 85.16,99.34 124.57,153.63 19.68,27.09 37,53.52 49.07,76.55 12.24,22.93 18.66,42.9 18.45,54.01 -0.25,7.48 -1.66,9.6 -4.17,11.86 -2.64,2.29 -9.77,5.36 -23.7,5.32l-0.04 -0.03c-3.31,-0.25 -18.59,-6.88 -38.27,-19.05 -75.67,-45.86 -232.55,-166.3 -429.9,-325.79 -592.7,-478.9 -1556.24,-1312.83 -1867.64,-1586.59 -7.34,-6.42 -18.49,-5.71 -24.91,1.63 -6.42,7.3 -5.71,18.45 1.63,24.87z"></path> <path class="fil3" d="M5950.83 5710.73l-492.86 -28.75 0.03 0 -262.15 -15.63 -0.03 0 -617.54 -36.05 0 0 -259.26 -15.31 0 0 -566.91 -33.13 -1.06 17.6 17.36 -3.24c0,0 -1.31,-6.85 -3.28,-19.55 -5.93,-38.06 -17.89,-127.38 -17.89,-227.89 -0.03,-75.28 6.77,-156.88 27.27,-227.37 20.5,-70.66 54.4,-129.22 106.82,-162.06l0.04 0c70.24,-44.52 218.3,-100.37 389.96,-153.5 171.84,-53.3 368.16,-104.67 538.09,-142.8l0 0c162.84,-36.69 302.47,-61.28 370.24,-63.29l0 0c8.93,-0.28 18.34,-0.42 28.29,-0.42 55.53,0 125.73,4.09 200.13,10.55 108.84,9.45 226.24,23.6 320.4,35.98l0.1 0c22.86,2.86 52.6,4.51 80.54,6.07 27.84,1.51 54.15,3 67.7,4.97 9.63,1.38 18.56,-5.29 19.97,-14.96 1.37,-9.63 -5.3,-18.59 -14.96,-19.96 -16.65,-2.37 -42.76,-3.71 -70.77,-5.3 -27.83,-1.51 -57.25,-3.21 -78.1,-5.82l0.1 0c-94.47,-12.41 -212.26,-26.63 -321.91,-36.12 -75.07,-6.49 -146.01,-10.69 -203.2,-10.69 -10.23,0 -20.04,0.14 -29.35,0.42l-0.03 0c-73.49,2.37 -212.73,27.31 -376.88,64.17l0 0c-170.88,38.32 -367.84,89.86 -540.8,143.48 -173.18,53.83 -321.49,109.04 -398.36,157.37l0.03 0c-62.79,39.58 -100.08,106.86 -121.95,182.11 -21.87,75.39 -28.65,159.77 -28.65,237.17 0,137.65 21.66,253.29 21.77,253.93 1.48,7.97 8.22,13.9 16.3,14.36l566.95 33.12 -0.04 0 259.26 15.31 0.03 0 617.54 36.06 -0.03 0 262.18 15.66 0 0 492.83 28.72c9.74,0.56 18.1,-6.85 18.66,-16.58 0.57,-9.74 -6.88,-18.07 -16.58,-18.63z"></path> <path class="fil3" d="M5262.88 6495.2l34.15 -776.78c0.42,-9.74 -7.13,-17.96 -16.86,-18.38 -9.74,-0.42 -17.96,7.09 -18.38,16.83l-34.15 776.78c-0.43,9.74 7.12,17.99 16.82,18.41 9.74,0.43 18,-7.12 18.42,-16.86z"></path> <path class="fil3" d="M5910.54 6380.83c27.38,2331.86 155.23,8350.47 155.23,8350.49l17.64 -0.34 0 -17.64 -1167.35 0 293.09 -7515.83c0.39,-9.74 -7.19,-17.92 -16.93,-18.31 -9.74,-0.39 -17.92,7.2 -18.31,16.94l-293.79 7534.14c-0.22,4.79 1.58,9.48 4.9,12.89 3.32,3.46 7.94,5.45 12.7,5.45l1185.69 0c4.69,0 9.27,-1.95 12.59,-5.29 3.28,-3.39 5.12,-8.01 5.01,-12.74 0,0 -0.49,-23.49 -1.41,-68.16 -14.15,-669.75 -128.1,-6096.28 -153.78,-8282.02 -0.1,-9.74 -8.08,-17.54 -17.85,-17.43 -9.73,0.14 -17.53,8.11 -17.43,17.85z"></path> <path class="fil3" d="M5409.64 4592.32c-142.74,45.51 -698.05,228.32 -758.12,329.14 -83.37,140.58 -79.73,553.12 -74.26,726.44l-259.26 -15.31c-5.12,-211.17 -2.58,-612.78 82.66,-754.8 69.53,-82.66 238.47,-165.67 404.88,-231.96 163.51,-36.76 302.96,-61.52 373.59,-63.71 60.08,-1.8 142.35,2.58 230.51,10.2z"></path> <path class="fil3" d="M5879.32 4648.76c0,0 -333.51,152.19 -393.94,313.87 -50.66,134.72 -35.35,587.69 -28.44,736.99l-262.15 -15.67c0.74,-188.63 5.44,-635.77 32.04,-751.91 33.51,-148.2 503.94,-303.67 503.94,-303.67l112.15 15.28 36.4 5.11z"></path> <path class="fil3" d="M5950.37 8113.89c-81.52,18.59 -248.63,51.08 -460.76,62.54 -9.35,0.5 -16.69,8.26 -16.69,17.61l0 1117.03c0,8.75 6.46,16.2 15.1,17.47 0.57,0.07 74.19,10.86 178.26,10.86 90.31,-0.03 203.55,-8.08 312.21,-38.73 9.38,-2.65 14.82,-12.39 12.17,-21.77 -2.65,-9.38 -12.38,-14.82 -21.77,-12.17 -104.03,29.39 -214.41,37.39 -302.61,37.39 -50.8,0 -94.26,-2.64 -124.92,-5.29 -15.31,-1.3 -27.44,-2.61 -35.73,-3.6 -8.26,-0.98 -12.49,-1.62 -12.53,-1.62l-2.54 17.46 17.64 0 0 -1117.03 -17.64 0 0.96 17.6c214.7,-11.61 383.64,-44.45 466.69,-63.36 9.52,-2.15 15.45,-11.6 13.29,-21.09 -2.15,-9.49 -11.6,-15.46 -21.13,-13.3z"></path> <path class="fil3" d="M5942.89 5947.2c-32.8,35.98 -68.79,73.37 -100.54,106.15 -359.12,-86.4 -572.56,-365.09 -572.56,-365.09l670.99 56.09 2.11 202.85z"></path> <path class="fil0" d="M10007.92 14974.49c24.02,-186.23 37.07,-529.17 -150.6,-716.14 -266.35,-266.3 -665.69,166.17 -765.53,166.17 -99.87,0 -133.39,-265.99 -432.86,-499.18 -177.48,-138.15 -378.35,-89.19 -554.11,-40.19 -120.89,33.7 -229.9,67.35 -311.25,40.19 -199.68,-66.68 166.47,-1098.2 -399.38,-1131.33 -565.86,-33.2 -765.5,1397.72 -1164.13,1397.72 -398.64,0 -466.06,-266.39 -865.37,-33.2 -312.95,182.38 -482.63,630.09 -541.55,815.96l5184.78 0z"></path> <path class="fil7" d="M10007.92 14974.49l-5184.78 0c58.92,-185.87 228.6,-633.58 541.55,-815.96 121.6,-71.03 212.37,-95.68 291.15,-95.68 179.88,0 296.97,128.88 574.22,128.88 394.08,0 593.61,-1398.29 1144.83,-1398.29 6.35,0 12.84,0.18 19.3,0.57 297.32,17.39 337.32,310.42 337.32,594.29 -0.03,104.7 -5.46,208.21 -5.46,296.16 0,127.39 11.46,222.15 67.52,240.88 20.81,6.94 43.46,9.9 67.66,9.9 70.27,0 153.67,-25.03 243.59,-50.09 89.93,-25.08 186.41,-50.13 283,-50.13 92.18,0 184.43,22.86 271.11,90.32 299.47,233.19 332.99,499.18 432.86,499.18 76.3,0 327.73,-252.8 560.95,-252.8 71.79,0 141.85,23.95 204.58,86.63 130.84,130.39 164.11,336.56 164.14,512.59 0,76.45 -6.28,147.19 -13.54,203.55z"></path> <path class="fil3" d="M5922.96 14942.47l-338.52 -549.75c-5.12,-8.32 -15.98,-10.9 -24.27,-5.77 -8.29,5.11 -10.9,15.97 -5.79,24.27l338.53 549.72c5.11,8.3 15.98,10.88 24.27,5.79 8.29,-5.11 10.9,-15.97 5.78,-24.26z"></path> <path class="fil3" d="M7224.18 14939.33l178.51 -1681.7c1.02,-9.67 -6,-18.38 -15.7,-19.4 -9.67,-1.02 -18.38,6 -19.4,15.7l-178.47 1681.69c-1.03,9.67 5.99,18.35 15.66,19.4 9.7,1.03 18.38,-5.99 19.4,-15.69z"></path> <path class="fil3" d="M8254.89 14956.33l174.21 -638.98c2.57,-9.39 -2.97,-19.09 -12.39,-21.67 -9.38,-2.57 -19.08,2.99 -21.62,12.39l-174.24 638.98c-2.57,9.42 2.96,19.12 12.38,21.67 9.39,2.56 19.09,-2.96 21.66,-12.39z"></path> <path class="fil3" d="M9521.12 14958.45l172.33 -416.03c3.74,-9 -0.53,-19.31 -9.52,-23.04 -9.03,-3.73 -19.34,0.52 -23.08,9.52l-172.29 416.03c-3.74,9.04 0.53,19.34 9.52,23.07 9,3.71 19.34,-0.57 23.04,-9.55z"></path> <path class="fil3" d="M5941.1 14408.05l-170.96 299.3 -402.41 -158.12c-9.07,-3.57 -19.3,0.91 -22.86,9.98 -3.57,9.06 0.88,19.29 9.94,22.86l416.63 163.65c8.19,3.21 17.43,-0.04 21.77,-7.66l178.51 -312.52c4.83,-8.47 1.9,-19.25 -6.57,-24.06 -8.46,-4.83 -19.22,-1.9 -24.05,6.57z"></path> <path class="fil3" d="M7101.98 13398.43l208.18 372.18c2.85,5.11 7.97,8.43 13.79,8.96 5.82,0.53 11.46,-1.84 15.2,-6.32l282.9 -342.55c6.21,-7.51 5.15,-18.61 -2.37,-24.83 -7.51,-6.2 -18.62,-5.15 -24.83,2.37l-266.49 322.64 -195.58 -349.66c-4.76,-8.51 -15.49,-11.55 -23.99,-6.78 -8.5,4.76 -11.54,15.49 -6.81,23.99z"></path> <path class="fil3" d="M6984.51 13996.5l268.14 327.37c6.07,7.41 16.9,8.65 24.49,2.75l267.72 -208.5c7.69,-5.99 9.06,-17.07 3.1,-24.76 -5.99,-7.69 -17.07,-9.07 -24.76,-3.06l-254.18 197.9 -257.21 -314.07c-6.17,-7.52 -17.28,-8.65 -24.83,-2.48 -7.55,6.18 -8.65,17.3 -2.47,24.85z"></path> <path class="fil3" d="M8346.51 14610.5l357.01 -208.1c8.43,-4.91 11.29,-15.7 6.39,-24.13 -4.91,-8.43 -15.74,-11.26 -24.13,-6.35l-357.01 208.09c-8.44,4.91 -11.26,15.71 -6.35,24.15 4.9,8.42 15.69,11.24 24.09,6.34z"></path> <path class="fil3" d="M8324.46 14708.11l-178.82 -461.43c-3.53,-9.07 -13.76,-13.57 -22.83,-10.06 -9.1,3.53 -13.61,13.73 -10.09,22.84l178.83 461.43c3.53,9.05 13.76,13.57 22.82,10.05 9.1,-3.49 13.62,-13.73 10.09,-22.83z"></path> <path class="fil3" d="M9604.8 14753.91l-89.61 -297.78c-2.82,-9.32 -12.66,-14.61 -21.98,-11.78 -9.34,2.78 -14.6,12.62 -11.81,21.97l89.6 297.75c2.82,9.31 12.67,14.6 21.98,11.82 9.31,-2.83 14.61,-12.66 11.82,-21.98z"></path> <path class="fil3" d="M9564.65 14834.91l252.94 -104.08c9,-3.74 13.3,-14.03 9.6,-23.03 -3.7,-9 -14.04,-13.3 -23.04,-9.59l-252.94 104.07c-8.99,3.69 -13.3,14 -9.59,23.02 3.7,9 14,13.3 23.03,9.61z"></path> <path class="fil3" d="M13093.7 3926.7l1467.56 0 4.02 -12.1c0.39,-1.27 9.77,-29.92 9.8,-73.52 0,-39.65 -7.9,-91.9 -37.85,-146.09 -29.88,-54.18 -81.81,-109.82 -167.71,-156.56l0 0c-131.55,-72.04 -230.08,-78.53 -303.92,-81.39 -36.9,-1.41 -67.34,-2.32 -92.64,-9.27 -25.29,-7.06 -46,-18.95 -67.62,-45.62 -9.56,-11.96 -13.41,-26.7 -13.48,-47.13 -0.07,-23.74 5.82,-53.76 12.06,-87.98 6.21,-34.22 12.63,-72.78 12.63,-114.66 0.18,-70.87 -19.12,-151.51 -87.27,-233.53 -68.12,-82.17 -183.84,-166.2 -376.52,-249.7l-7.02 16.19 17.6 -1.27c-0.18,-2.01 -12.38,-170.39 -147.71,-342.19 -135.22,-171.91 -394.16,-344.77 -879.37,-355.32l0 0c-15.02,-0.32 -29.77,-0.49 -44.2,-0.49 -229.8,0 -388.55,41.76 -501.09,108.55 -84.38,50.05 -142.24,114.12 -183.86,183.12 -62.41,103.58 -89.04,217.98 -118.11,316.23 -14.47,49.11 -29.53,94.16 -49.14,131.73 -19.69,37.61 -43.61,67.49 -76.1,88.23 -66.25,42.19 -117.51,54.75 -163.12,54.82 -40.75,0.04 -77.76,-10.41 -116.63,-21.55 -38.81,-11.08 -79.48,-22.9 -126.23,-22.93 -52.28,-0.07 -111.19,15.24 -181.11,60.04 -67.17,42.83 -110.39,97.15 -139.98,154.06 -44.38,85.4 -59.38,176.49 -82.87,247.89 -11.68,35.7 -25.33,66.22 -44.28,89.01 -19.01,22.79 -42.82,38.66 -78.88,46.5 -16.19,3.45 -32.98,5.01 -50.41,5.01 -70.1,0.14 -150.49,-26 -235.58,-53.1 -85.2,-26.91 -175.23,-54.68 -267.09,-54.75 -68.19,-0.03 -137.51,15.7 -204.26,58.53 -130.25,83.29 -196.88,161.78 -244.12,217.63 -23.57,27.9 -42.41,49.77 -60.82,63.71 -18.52,13.9 -35.74,20.78 -61.6,20.95 -36.23,0.11 -88.12,-10.09 -145.62,-20.6 -57.65,-10.44 -121.22,-21.13 -183.48,-21.17 -62.16,0 -123.58,10.69 -175.33,44.66 -143.41,94.34 -306.18,212.02 -306.28,212.13l-44.17 31.93 4244.3 0 0 -35.28 -4189.8 0 0 17.64 10.34 14.29c0,-0.04 10.12,-7.31 27.55,-19.8 52.39,-37.43 170.6,-121.14 277.46,-191.41 43.53,-28.68 97.65,-38.88 155.93,-38.88 58.21,-0.03 119.94,10.2 177.16,20.6 57.33,10.37 109.75,21.1 151.94,21.17 32.95,0.21 60.12,-10.51 82.98,-28.15 34.43,-26.5 61.84,-66.01 105.37,-113.98 43.43,-48.02 102.34,-104.99 197.21,-165.74 60.78,-38.84 122.3,-52.88 185.24,-52.95 84.63,-0.04 171.52,26.14 256.4,53.13 84.95,26.81 167.64,54.57 246.27,54.71 19.55,0 38.84,-1.76 57.79,-5.78 57.61,-12 95.32,-45.79 119.45,-88.76 36.44,-64.42 48.72,-148.84 76.66,-231.56 27.9,-82.84 69.42,-162.95 161.5,-221.9 65.79,-41.95 116.77,-54.4 162.13,-54.51 40.64,-0.03 77.62,10.41 116.49,21.56 38.81,11.11 79.52,22.89 126.37,22.93 52.53,0.07 111.72,-15.31 182.1,-60.36 34.71,-22.12 60.61,-52.74 80.96,-88.13 35.6,-62.05 55.46,-138.99 78.64,-219.46 34.64,-120.82 76.13,-248.78 180.37,-346.53 104.14,-97.72 273.02,-168.1 569.35,-168.21 14.18,0 28.65,0.18 43.39,0.5 477.42,10.9 723.44,178.57 852.49,341.87 64.49,81.78 99.59,162.92 118.57,223.49 9.45,30.27 14.89,55.39 17.95,72.81 1.52,8.68 2.47,15.49 3,20.01l0.57 5.08 0.14 1.48 0.74 10.69 9.84 4.26c189.55,82.1 300.43,163.76 363.33,239.82 62.86,76.13 79.02,146.26 79.2,211.03 0.03,38.25 -5.93,74.55 -12.07,108.38 -6.1,33.86 -12.59,65.09 -12.63,94.26 -0.07,24.73 5.08,49.11 21.24,69.22 25.4,31.85 54.64,49.24 85.9,57.57 46.99,12.49 96.84,7.94 158.57,14.14 61.74,6.11 135.68,21.84 230.33,73.45l0.04 0c80.85,44.1 127.14,94.69 153.7,142.67 26.53,48.01 33.41,93.91 33.45,129.01 0,19.22 -2.12,35.17 -4.17,46.11 -1.02,5.5 -2.04,9.73 -2.78,12.52l-0.85 3.07 -0.25 0.74 16.76 5.54 0 -17.64 -1454.82 0 0 35.28z"></path> <path class="fil3" d="M143.61 8117.48l0 17.64 3383.82 0 -44.18 -31.92c-0.11,-0.07 -91.35,-66.04 -171.89,-119.03 -30.8,-20.21 -66.82,-26.28 -102.5,-26.32 -35.76,0.04 -71.81,6.14 -104.18,12 -32.26,5.92 -61.23,11.5 -80.22,11.43 -12.94,-0.18 -20.38,-3.21 -29.82,-10.16 -14.05,-10.41 -30.01,-32.25 -55.28,-60.43 -25.4,-28.16 -60.71,-62.16 -116.08,-97.58 -38.71,-24.84 -79.25,-34.04 -118.6,-34.01 -53.07,0.07 -104.21,15.95 -152,31.04 -47.72,15.24 -92.26,29.53 -129.66,29.39 -9.3,0 -18.15,-0.85 -26.61,-2.64 -24.71,-5.58 -37.4,-17.18 -48.8,-36.45 -16.86,-28.92 -24.5,-75.7 -40.76,-124.84 -16.3,-49.08 -43.27,-101.57 -101.76,-138.79 -40.08,-25.71 -74.83,-34.96 -105.66,-34.85 -27.53,0 -51.13,6.95 -72.85,13.12 -21.8,6.28 -41.72,11.82 -63.21,11.78 -24.04,-0.07 -51.04,-6.49 -87.25,-29.49 -14.91,-9.52 -26.42,-22.79 -36.31,-39.9 -17.31,-29.88 -28.48,-71.36 -41.45,-116.8 -19.62,-68.05 -44.01,-145.88 -108.68,-206.66 -64.74,-60.85 -167.8,-101.81 -337.82,-101.7 -8.16,0 -16.47,0.1 -24.95,0.28 -273.56,5.82 -421.48,103.82 -498.63,202.03 -77.19,98.08 -84.19,193.96 -84.4,195.97l17.6 1.27 -7.02 -16.19c-108.63,47.09 -174.53,94.68 -213.84,142.06 -39.37,47.27 -50.88,94.76 -50.7,135.82 0.01,24.27 3.72,46.36 7.22,65.62 3.54,19.26 6.7,35.81 6.64,47.94 -0.07,10.48 -1.95,16.62 -5.84,21.52l0 0c-11.3,13.79 -21.03,19.26 -33.89,22.93 -19.19,5.5 -47.1,3.63 -84.3,7.13 -37.22,3.56 -83.35,13.61 -139.56,44.38l0.02 -0.04c-49.26,26.78 -79.59,59.09 -97.07,90.81 -17.53,31.71 -22.18,62.37 -22.16,85.58l0 0c0.01,25.54 5.47,42.33 5.87,43.6l4.01 12.1 12.75 0 0 -17.64 16.74 -5.53 -4.69 1.55 4.72 -1.48 -0.03 -0.07 -4.69 1.55 4.72 -1.48c-0.18,-0.5 -4.14,-13.44 -4.12,-32.6 0.01,-18.66 3.65,-42.97 17.76,-68.51 14.15,-25.54 38.83,-52.74 83.05,-76.87l0.44 -0.25 -0.41 0.22c69.56,-37.75 117.51,-40.5 158.2,-42.27 20.35,-0.84 39.16,-1.09 58,-6.14 18.84,-4.93 37.1,-15.87 52.14,-34.89l0 0c10.52,-13.01 13.69,-28.82 13.62,-43.6 -0.07,-17.57 -3.83,-35.35 -7.22,-54.22 -3.43,-18.87 -6.64,-38.7 -6.64,-59.34 0.18,-34.96 8.56,-71.93 42.59,-113.31 34.12,-41.28 95.17,-86.5 200.7,-132.19l9.81 -4.26 0.77 -10.66 0.06 -0.67c0.8,-8.75 11.08,-97.47 83.7,-184.43 72.68,-86.82 207.41,-174.2 464.87,-180.16 8.21,-0.18 16.27,-0.29 24.16,-0.29 125.53,0 209.24,22.86 266.7,56.98 43.12,25.64 72.02,57.68 93.49,93.17 32.18,53.19 46.85,114.58 63.33,170.74 8.31,28.05 17.09,54.86 29.56,78.74 12.42,23.85 28.88,45.05 52.2,59.9 40.35,25.86 75.27,35.14 106.23,35.03 27.58,0 51.2,-6.95 72.93,-13.12 21.8,-6.28 41.71,-11.82 63.13,-11.78 23.92,0.07 50.72,6.45 86.68,29.28 33.21,21.3 53.86,47.27 68.83,75.88 22.45,42.86 30.74,91.69 44.67,134.72 7.07,21.49 15.7,41.84 29.79,58.88 13.97,17.08 33.98,30.06 59.65,35.39 11.2,2.4 22.56,3.42 33.97,3.42 45.93,-0.14 92.77,-16.05 140.32,-31.05 47.49,-15.09 95.5,-29.42 141.34,-29.38 34.09,0.07 66.84,7.55 99.59,28.43 70.04,44.95 104.2,85.44 130.61,116.56 13.25,15.56 24.5,29.14 38.39,39.83 13.77,10.69 31.17,17.53 51.19,17.36 24.96,-0.11 54.45,-6.21 86.53,-12 31.96,-5.82 66.14,-11.43 97.87,-11.43 31.8,0 60.54,5.61 83.11,20.53 39.8,26.14 82.5,55.74 115.21,78.71 32.72,23 55.36,39.37 55.42,39.4l10.32 -14.29 0 -17.63 -3329.31 0 0 17.63 16.74 -5.53 -16.74 5.53z"></path> </g> </g> </svg> 